<?xml version="1.0" encoding="UTF-8" standalone="no"?>
<!DOCTYPE svg PUBLIC "-//W3C//DTD SVG 1.1//EN" "http://www.w3.org/Graphics/SVG/1.1/DTD/svg11.dtd">
<svg width="100%" height="100%" viewBox="0 0 100 100" version="1.1" xmlns="http://www.w3.org/2000/svg" xmlns:xlink="http://www.w3.org/1999/xlink" xml:space="preserve" xmlns:serif="http://www.serif.com/" style="fill-rule:evenodd;clip-rule:evenodd;stroke-linejoin:round;stroke-miterlimit:2;">
    <g transform="matrix(1,0,0,1,0,-0.002)">
        <g transform="matrix(1,0,0,1,945,210.002)">
            <circle cx="-895" cy="-160" r="50" style="fill:rgb(202,197,192);"/>
        </g>
        <g transform="matrix(1,0,0,1,945,210.002)">
            <path d="M-922,-157.572C-922,-167.359 -919.939,-176.385 -915.809,-184.644C-910.692,-194.88 -903.686,-199.999 -894.797,-199.999C-886,-199.999 -879.131,-195.64 -874.192,-186.935C-870.065,-179.749 -868.001,-171.398 -868.001,-161.884C-868.001,-152.003 -870.065,-143.07 -874.192,-135.081C-879.223,-125.023 -886.227,-120 -895.203,-120C-903.734,-120 -910.508,-124.307 -915.539,-132.926C-919.847,-140.287 -922,-148.502 -922,-157.572ZM-910.691,-162.016C-910.691,-149.09 -908.761,-139.032 -904.896,-131.848C-902.205,-126.823 -898.75,-124.307 -894.529,-124.307C-884.383,-124.307 -879.308,-134.813 -879.308,-155.825C-879.308,-165.069 -880.117,-172.884 -881.73,-179.259C-884.515,-189.763 -889.228,-195.019 -895.875,-195.019C-905.754,-195.019 -910.691,-184.869 -910.691,-164.576L-910.691,-162.016Z" style="fill:rgb(13,15,15);fill-rule:nonzero;"/>
        </g>
    </g>
</svg>
