<?xml version="1.0" encoding="UTF-8" standalone="no"?>
<!DOCTYPE svg PUBLIC "-//W3C//DTD SVG 1.1//EN" "http://www.w3.org/Graphics/SVG/1.1/DTD/svg11.dtd">
<svg width="100%" height="100%" viewBox="0 0 100 100" version="1.1" xmlns="http://www.w3.org/2000/svg" xmlns:xlink="http://www.w3.org/1999/xlink" xml:space="preserve" xmlns:serif="http://www.serif.com/" style="fill-rule:evenodd;clip-rule:evenodd;stroke-linejoin:round;stroke-miterlimit:2;">
    <g transform="matrix(1,0,0,1,-210,0)">
        <g transform="matrix(1,0,0,1,945,210.002)">
            <circle cx="-685" cy="-160.002" r="50" style="fill:rgb(202,197,192);"/>
        </g>
        <g transform="matrix(1,0,0,1,945,210.002)">
            <path d="M-657.558,-139.897L-663.454,-119.999L-712.445,-119.999L-712.445,-124.253C-710.065,-126.905 -704.85,-132.254 -696.799,-140.306C-691.95,-145.158 -687.15,-150.278 -682.392,-155.677C-680.014,-158.328 -678.182,-160.619 -676.905,-162.539C-674.069,-166.653 -672.65,-170.859 -672.65,-175.163C-672.65,-179.367 -673.951,-183.075 -676.558,-186.275C-679.165,-189.479 -682.528,-191.083 -686.648,-191.083C-695.519,-191.083 -702.471,-185.085 -707.502,-173.103L-711.897,-174.75C-705.95,-191.579 -696.576,-199.999 -683.766,-199.999C-677.453,-199.999 -672.079,-197.85 -667.642,-193.551C-663.203,-189.251 -660.986,-183.947 -660.986,-177.631C-660.986,-169.579 -665.603,-161.713 -674.844,-154.03L-684.448,-146.074C-690.579,-140.947 -695.66,-136.145 -699.679,-131.662C-699.959,-131.389 -700.505,-130.746 -701.326,-129.741L-675.805,-129.741C-671.873,-129.741 -668.898,-130.517 -666.887,-132.076C-665.152,-133.448 -663.453,-136.056 -661.807,-139.897L-657.558,-139.897Z" style="fill:rgb(13,15,15);fill-rule:nonzero;"/>
        </g>
    </g>
</svg>
