<?xml version="1.0" encoding="UTF-8" standalone="no"?>
<!DOCTYPE svg PUBLIC "-//W3C//DTD SVG 1.1//EN" "http://www.w3.org/Graphics/SVG/1.1/DTD/svg11.dtd">
<svg width="100%" height="100%" viewBox="0 0 100 100" version="1.1" xmlns="http://www.w3.org/2000/svg" xmlns:xlink="http://www.w3.org/1999/xlink" xml:space="preserve" xmlns:serif="http://www.serif.com/" style="fill-rule:evenodd;clip-rule:evenodd;stroke-linejoin:round;stroke-miterlimit:2;">
    <g transform="matrix(1,0,0,1,-315,0)">
        <g transform="matrix(1,0,0,1,945,210.002)">
            <circle cx="-580" cy="-160.002" r="50" style="fill:rgb(202,197,192);"/>
        </g>
        <g transform="matrix(1,0,0,1,945,210.002)">
            <path d="M-590.439,-157.438L-592.457,-161.209L-591.12,-162.016C-585.946,-165.161 -581.217,-168.346 -576.931,-171.579C-572.647,-174.811 -570.504,-178.494 -570.504,-182.627C-570.504,-185.405 -571.533,-187.739 -573.589,-189.625C-575.65,-191.517 -578.061,-192.459 -580.833,-192.459C-587.272,-192.459 -594.067,-188.458 -601.225,-180.468L-604.579,-183.027C-597.126,-194.343 -588.013,-200.001 -577.238,-200.001C-572.481,-200.001 -568.443,-198.833 -565.116,-196.498C-561.345,-193.891 -559.461,-190.345 -559.461,-185.856C-559.461,-182.627 -560.81,-179.482 -563.5,-176.43C-565.028,-174.632 -567.726,-172.298 -571.583,-169.426L-573.199,-168.213C-572.481,-168.302 -571.627,-168.347 -570.639,-168.347C-565.702,-168.347 -561.641,-166.46 -558.451,-162.69C-555.263,-158.919 -553.668,-154.52 -553.668,-149.494C-553.668,-140.962 -557.263,-133.827 -564.442,-128.078C-571.089,-122.691 -578.767,-120.001 -587.474,-120.001C-595.465,-120.001 -601.75,-121.749 -606.332,-125.25L-603.903,-128.621C-598.516,-126.013 -593.624,-124.714 -589.222,-124.714C-582.849,-124.714 -577.171,-126.823 -572.19,-131.044C-567.202,-135.264 -564.715,-140.513 -564.715,-146.799C-564.715,-150.931 -565.97,-154.454 -568.485,-157.375C-571.001,-160.29 -574.278,-161.749 -578.317,-161.749C-582.001,-161.747 -586.04,-160.312 -590.439,-157.438Z" style="fill:rgb(13,15,15);fill-rule:nonzero;"/>
        </g>
    </g>
</svg>
