<?xml version="1.0" encoding="UTF-8" standalone="no"?>
<!DOCTYPE svg PUBLIC "-//W3C//DTD SVG 1.1//EN" "http://www.w3.org/Graphics/SVG/1.1/DTD/svg11.dtd">
<svg width="100%" height="100%" viewBox="0 0 100 100" version="1.1" xmlns="http://www.w3.org/2000/svg" xmlns:xlink="http://www.w3.org/1999/xlink" xml:space="preserve" xmlns:serif="http://www.serif.com/" style="fill-rule:evenodd;clip-rule:evenodd;stroke-linejoin:round;stroke-miterlimit:2;">
    <g transform="matrix(1,0,0,1,-525,0)">
        <g transform="matrix(1,0,0,1,945,210.002)">
            <circle cx="-370" cy="-160.002" r="50" style="fill:rgb(202,197,192);"/>
        </g>
        <g transform="matrix(1,0,0,1,945,210.002)">
            <path d="M-385.043,-198.648L-356.102,-198.648C-352.348,-198.648 -350.114,-199.098 -349.399,-200L-345.243,-200L-347.665,-189.075L-382.979,-189.075L-386.387,-173.286C-381.26,-175.356 -376.719,-176.39 -372.762,-176.39C-365.033,-176.39 -358.512,-173.803 -353.203,-168.632C-347.898,-163.461 -345.242,-157.01 -345.242,-149.275C-345.242,-140.279 -348.707,-133.038 -355.636,-127.553C-362.021,-122.514 -369.798,-120 -378.974,-120C-384.369,-120 -389.634,-120.808 -394.759,-122.426L-393.142,-126.472C-388.822,-125.303 -385.001,-124.721 -381.673,-124.721C-375.019,-124.721 -369.196,-126.901 -364.2,-131.265C-359.21,-135.623 -356.712,-141.091 -356.712,-147.657C-356.712,-153.322 -358.556,-157.977 -362.245,-161.616C-365.934,-165.262 -370.61,-167.084 -376.278,-167.084C-381.491,-167.084 -386.348,-165.284 -390.846,-161.688L-393.547,-162.226L-385.043,-198.648Z" style="fill:rgb(13,15,15);fill-rule:nonzero;"/>
        </g>
    </g>
</svg>
