<?xml version="1.0" encoding="UTF-8" standalone="no"?>
<!DOCTYPE svg PUBLIC "-//W3C//DTD SVG 1.1//EN" "http://www.w3.org/Graphics/SVG/1.1/DTD/svg11.dtd">
<svg width="100%" height="100%" viewBox="0 0 100 100" version="1.1" xmlns="http://www.w3.org/2000/svg" xmlns:xlink="http://www.w3.org/1999/xlink" xml:space="preserve" xmlns:serif="http://www.serif.com/" style="fill-rule:evenodd;clip-rule:evenodd;stroke-linejoin:round;stroke-miterlimit:2;">
    <g transform="matrix(1,0,0,1,-630,0)">
        <g transform="matrix(1,0,0,1,945,210.002)">
            <circle cx="-265" cy="-160.002" r="50" style="fill:rgb(202,197,192);"/>
        </g>
        <g transform="matrix(1,0,0,1,945,210.002)">
            <path d="M-278.42,-165.325C-272.486,-170.902 -266.51,-173.689 -260.481,-173.689C-253.917,-173.689 -248.653,-171.083 -244.694,-165.868C-241.012,-161.098 -239.165,-155.347 -239.165,-148.598C-239.165,-141.222 -241.323,-134.749 -245.64,-129.173C-250.408,-123.059 -256.343,-119.999 -263.447,-119.999C-271.994,-119.999 -278.828,-123.689 -283.951,-131.062C-288.541,-137.539 -290.834,-145.229 -290.834,-154.133C-290.834,-163.573 -288.227,-172.274 -283.01,-180.234C-277.797,-188.192 -270.826,-193.836 -262.104,-197.162C-257.157,-199.05 -251.936,-200.001 -246.454,-200.001L-246.454,-195.817C-258.145,-195.186 -266.868,-190.509 -272.628,-181.786C-275.586,-177.285 -277.523,-171.803 -278.42,-165.325ZM-279.232,-157.233C-279.318,-155.615 -279.365,-153.995 -279.365,-152.376C-279.365,-146.173 -278.287,-140.416 -276.129,-135.107C-273.344,-128.185 -269.246,-124.722 -263.85,-124.722C-259.176,-124.722 -255.67,-127.103 -253.33,-131.873C-251.533,-135.557 -250.633,-140.008 -250.633,-145.228C-250.633,-150.799 -251.49,-155.57 -253.196,-159.527C-255.536,-164.923 -259.132,-167.619 -263.989,-167.619C-269.922,-167.62 -275.006,-164.155 -279.232,-157.233Z" style="fill:rgb(13,15,15);fill-rule:nonzero;"/>
        </g>
    </g>
</svg>
