<?xml version="1.0" encoding="UTF-8" standalone="no"?>
<!DOCTYPE svg PUBLIC "-//W3C//DTD SVG 1.1//EN" "http://www.w3.org/Graphics/SVG/1.1/DTD/svg11.dtd">
<svg width="100%" height="100%" viewBox="0 0 100 100" version="1.1" xmlns="http://www.w3.org/2000/svg" xmlns:xlink="http://www.w3.org/1999/xlink" xml:space="preserve" xmlns:serif="http://www.serif.com/" style="fill-rule:evenodd;clip-rule:evenodd;stroke-linejoin:round;stroke-miterlimit:2;">
    <g transform="matrix(1,0,0,1,-840,0)">
        <g transform="matrix(1,0,0,1,945,210.002)">
            <circle cx="-55" cy="-160.002" r="50" style="fill:rgb(202,197,192);"/>
        </g>
        <g transform="matrix(1,0,0,1,945,210.002)">
            <path d="M-64.035,-160.537L-65.781,-161.748C-70.9,-165.25 -74.273,-168.078 -75.888,-170.237C-77.954,-172.928 -78.984,-176.067 -78.984,-179.663C-78.984,-185.768 -76.427,-190.75 -71.306,-194.612C-66.548,-198.202 -61.025,-200 -54.738,-200C-48.816,-200 -43.558,-198.427 -38.982,-195.287C-33.779,-191.784 -31.169,-187.16 -31.169,-181.411C-31.169,-174.407 -36.067,-168.751 -45.851,-164.444C-34.72,-159.056 -29.152,-151.56 -29.152,-141.952C-29.152,-135.038 -31.798,-129.563 -37.101,-125.518C-41.854,-121.836 -47.83,-120 -55.01,-120C-61.744,-120 -67.535,-121.703 -72.387,-125.119C-77.955,-128.975 -80.735,-134.095 -80.735,-140.468C-80.735,-146.841 -77.772,-152.098 -71.846,-156.229C-70.23,-157.303 -67.623,-158.739 -64.035,-160.537ZM-59.463,-158.625C-67.543,-154.948 -71.574,-149.159 -71.574,-141.264C-71.574,-136.151 -69.939,-132.046 -66.658,-128.95C-63.381,-125.853 -59.183,-124.307 -54.064,-124.307C-49.49,-124.307 -45.603,-125.539 -42.418,-128.002C-39.232,-130.466 -37.637,-133.893 -37.637,-138.282C-37.637,-144.908 -42.004,-150.283 -50.735,-154.404L-59.463,-158.625ZM-50.432,-166.598C-43.344,-169.739 -39.791,-174.452 -39.791,-180.737C-39.791,-185.05 -41.297,-188.503 -44.301,-191.112C-47.313,-193.715 -51.016,-195.018 -55.414,-195.018C-59.098,-195.018 -62.283,-194.027 -64.977,-192.054C-67.942,-189.9 -69.42,-187.024 -69.42,-183.434C-69.42,-179.034 -67.357,-175.486 -63.225,-172.791C-62.42,-172.254 -58.829,-170.505 -52.45,-167.541L-50.432,-166.598Z" style="fill:rgb(13,15,15);fill-rule:nonzero;"/>
        </g>
    </g>
</svg>
