<?xml version="1.0" encoding="UTF-8" standalone="no"?>
<!DOCTYPE svg PUBLIC "-//W3C//DTD SVG 1.1//EN" "http://www.w3.org/Graphics/SVG/1.1/DTD/svg11.dtd">
<svg width="100%" height="100%" viewBox="0 0 100 100" version="1.1" xmlns="http://www.w3.org/2000/svg" xmlns:xlink="http://www.w3.org/1999/xlink" xml:space="preserve" xmlns:serif="http://www.serif.com/" style="fill-rule:evenodd;clip-rule:evenodd;stroke-linejoin:round;stroke-miterlimit:2;">
    <g transform="matrix(1,0,0,1,-945,0)">
        <g transform="matrix(1,0,0,1,945,210.002)">
            <circle cx="50" cy="-160.002" r="50" style="fill:rgb(202,197,192);"/>
        </g>
        <g transform="matrix(1,0,0,1,945,210.002)">
            <path d="M63.402,-154.476C57.48,-148.909 51.504,-146.123 45.492,-146.123C38.937,-146.123 33.683,-148.727 29.734,-153.937C26.05,-158.695 24.211,-164.444 24.211,-171.178C24.211,-178.45 26.363,-184.955 30.672,-190.704C35.344,-196.903 41.227,-200 48.32,-200C56.942,-200 63.809,-196.272 68.925,-188.819C73.507,-182.265 75.792,-174.5 75.792,-165.517C75.792,-152.771 71.568,-142.019 63.137,-133.26C54.696,-124.508 44.144,-120.086 31.484,-119.999L31.484,-124.174C35.343,-124.35 38.437,-124.8 40.781,-125.518C53.703,-129.469 61.25,-139.119 63.402,-154.476ZM64.215,-162.558C64.301,-164.264 64.344,-165.88 64.344,-167.404C64.344,-173.689 63.27,-179.438 61.114,-184.644C58.239,-191.56 54.114,-195.018 48.728,-195.018C44.052,-195.018 40.603,-192.633 38.353,-187.877C36.556,-184.194 35.662,-179.751 35.662,-174.543C35.662,-168.977 36.514,-164.219 38.221,-160.268C40.553,-154.881 44.147,-152.185 48.998,-152.185C54.918,-152.185 59.988,-155.643 64.215,-162.558Z" style="fill:rgb(13,15,15);fill-rule:nonzero;"/>
        </g>
    </g>
</svg>
