<?xml version="1.0" encoding="UTF-8" standalone="no"?>
<!DOCTYPE svg PUBLIC "-//W3C//DTD SVG 1.1//EN" "http://www.w3.org/Graphics/SVG/1.1/DTD/svg11.dtd">
<svg width="100%" height="100%" viewBox="0 0 100 100" version="1.1" xmlns="http://www.w3.org/2000/svg" xmlns:xlink="http://www.w3.org/1999/xlink" xml:space="preserve" xmlns:serif="http://www.serif.com/" style="fill-rule:evenodd;clip-rule:evenodd;stroke-linejoin:round;stroke-miterlimit:2;">
    <g transform="matrix(1,0,0,1,-525,-315.003)">
        <g transform="matrix(1,0,0,1,945,210.002)">
            <path d="M-334.651,119.637C-325.598,128.688 -320,141.188 -320,154.997C-320,182.613 -342.387,205 -370,205C-383.807,205 -396.305,199.404 -405.354,190.354" style="fill:rgb(163,192,149);fill-rule:nonzero;"/>
            <path d="M-405.354,190.354C-414.404,181.307 -420,168.805 -420,154.998C-420,127.385 -397.613,105.001 -370,105.001C-356.198,105.001 -343.699,110.595 -334.651,119.638" style="fill:rgb(186,177,171);fill-rule:nonzero;"/>
        </g>
        <g transform="matrix(1,0,0,1,945,210.002)">
            <path d="M-366.743,133.111C-366.743,135.812 -367.725,137.654 -369.69,138.636C-370.264,138.923 -372.064,139.314 -375.094,139.802C-377.057,140.131 -378.039,140.89 -378.039,142.073L-378.039,147.046C-378.039,147.255 -377.977,147.888 -377.855,148.952L-377.67,150.917C-377.67,151.53 -377.814,152.534 -378.101,153.925C-378.877,154.088 -379.779,154.273 -380.801,154.48C-381.129,153.251 -381.292,152.411 -381.292,151.96C-381.292,151.757 -381.242,151.448 -381.14,151.039C-381.038,150.631 -380.987,150.323 -380.987,150.118C-380.987,149.834 -381.24,149.034 -381.749,147.725L-382.702,147.725C-382.827,147.928 -382.869,148.194 -382.829,148.52C-382.665,149.216 -382.604,149.809 -382.643,150.301C-383.34,150.792 -384.3,151.447 -385.529,152.266C-385.817,152.184 -385.919,152.143 -385.837,152.143L-385.837,147.784C-385.919,147.582 -386.123,147.499 -386.451,147.539L-387.188,147.539L-387.924,153.31C-388.496,153.351 -389.193,153.351 -390.01,153.31C-390.297,151.96 -390.81,149.956 -391.545,147.295L-392.037,147.295C-392.487,148.728 -392.732,149.505 -392.774,149.628C-392.774,149.791 -392.722,150.108 -392.619,150.579C-392.518,151.05 -392.467,151.366 -392.467,151.53C-392.467,151.651 -392.508,151.96 -392.591,152.451L-392.775,153.925C-392.858,154.005 -392.959,154.046 -393.081,154.046C-394.31,154.046 -395.129,153.74 -395.536,153.127C-395.947,152.513 -396.111,151.651 -396.029,150.547L-395.536,143.181C-395.536,143.06 -395.498,142.896 -395.415,142.689C-395.333,142.486 -395.292,142.341 -395.292,142.261C-395.292,141.933 -395.64,141.277 -396.335,140.294C-396.458,140.255 -397.093,140.11 -398.239,139.864C-398.934,139.701 -400.306,139.414 -402.351,139.006C-405.175,138.476 -406.588,136.203 -406.588,132.191C-406.588,126.214 -404.132,121.243 -399.221,117.273C-399.017,118.378 -398.668,119.849 -398.177,121.691C-397.808,121.777 -397.009,121.961 -395.781,122.246C-395.534,122.327 -394.287,122.779 -392.036,123.598C-393.182,122.903 -394.676,121.778 -396.516,120.221C-397.213,119.403 -397.562,118.032 -397.562,116.108C-397.562,115.658 -396.784,115.127 -395.227,114.509C-393.836,113.938 -392.793,113.612 -392.096,113.53C-389.887,113.244 -388.189,113.098 -387,113.098C-381.885,113.098 -377.751,114.41 -374.6,117.03C-375.622,118.218 -377.383,119.483 -379.879,120.837C-378.897,120.878 -377.464,120.489 -375.58,119.669C-373.698,118.853 -372.9,118.442 -373.186,118.442C-372.859,118.442 -372.204,119.096 -371.221,120.405C-370.486,121.387 -369.892,122.27 -369.441,123.046C-368.131,125.379 -367.251,127.898 -366.799,130.599C-366.799,131.54 -366.78,132.215 -366.738,132.623L-366.738,133.112L-366.743,133.112L-366.743,133.111ZM-390.259,134.219C-390.259,132.458 -391.026,130.79 -392.561,129.213C-394.096,127.637 -395.745,126.85 -397.504,126.85C-399.059,126.85 -400.429,127.51 -401.617,128.828C-402.804,130.147 -403.396,131.61 -403.396,133.217C-403.396,134.618 -402.722,135.527 -401.37,135.937C-400.51,136.185 -399.305,136.329 -397.749,136.371L-394.373,136.371C-391.631,136.407 -390.259,135.689 -390.259,134.219ZM-383.566,141.831L-383.566,139.93C-383.852,139.397 -384.139,138.843 -384.424,138.27C-384.67,137.453 -385.121,136.307 -385.776,134.831L-386.452,142.017C-386.452,142.591 -386.573,142.876 -386.82,142.876C-386.983,142.876 -387.107,142.836 -387.189,142.754C-387.475,138.415 -387.618,136.53 -387.618,137.107L-387.618,134.959C-387.701,134.833 -387.803,134.771 -387.926,134.771C-389.317,136.208 -390.012,138.519 -390.012,141.709C-390.012,143.47 -389.85,144.554 -389.523,144.966C-389.195,144.883 -388.828,144.74 -388.417,144.535C-388.254,144.452 -387.783,144.412 -387.005,144.412C-386.23,144.412 -385.286,144.658 -384.182,145.147C-383.771,145.146 -383.566,144.042 -383.566,141.831ZM-369.69,133.275C-369.69,131.629 -370.304,130.157 -371.533,128.857C-372.762,127.56 -374.173,126.912 -375.767,126.912C-377.487,126.912 -379.095,127.699 -380.587,129.275C-382.082,130.849 -382.829,132.498 -382.829,134.217C-382.829,135.65 -382.132,136.365 -380.741,136.365L-373.681,136.365C-371.021,136.325 -369.69,135.297 -369.69,133.275Z" style="fill:rgb(13,15,15);fill-rule:nonzero;"/>
        </g>
        <g transform="matrix(1,0,0,1,945,210.002)">
            <path d="M-330.481,172.618C-330.481,173.376 -330.774,174.055 -331.36,174.661C-331.946,175.265 -332.618,175.566 -333.376,175.566C-334.583,175.566 -335.474,175 -336.039,173.865L-338.706,173.753C-339.273,173.753 -340.39,173.999 -342.051,174.49C-343.828,174.98 -344.849,175.378 -345.115,175.679C-345.529,176.133 -345.87,177.193 -346.135,178.857C-346.363,180.217 -346.474,181.22 -346.474,181.863C-346.474,182.883 -346.314,183.631 -345.994,184.103C-345.673,184.576 -345.01,184.972 -344.01,185.292C-343.01,185.61 -342.394,185.794 -342.166,185.831C-342.015,185.831 -341.77,185.813 -341.429,185.774L-340.748,185.774C-340.257,185.774 -339.747,185.85 -339.216,186.001C-338.461,186.228 -338.139,186.528 -338.251,186.908C-338.782,186.834 -339.707,186.946 -341.029,187.248L-339.443,188.043C-339.443,188.497 -340.086,188.722 -341.371,188.722C-341.713,188.722 -342.177,188.65 -342.761,188.497C-343.349,188.343 -343.737,188.268 -343.924,188.268L-344.661,188.268C-344.699,188.647 -344.811,189.211 -345.001,189.969C-345.647,189.932 -346.4,189.553 -347.271,188.836C-348.141,188.116 -348.689,187.757 -348.914,187.757C-349.142,187.757 -349.465,188.116 -349.879,188.836C-350.296,189.553 -350.503,190.043 -350.503,190.311C-350.994,190.043 -351.409,189.553 -351.752,188.836C-351.903,188.342 -352.073,187.85 -352.261,187.357C-352.64,187.396 -353.338,188.193 -354.36,189.742L-354.644,189.742C-354.721,189.629 -355.004,188.836 -355.496,187.357C-356.668,186.982 -357.764,186.794 -358.784,186.794C-359.275,186.794 -360.033,186.906 -361.054,187.135L-362.641,187.022C-362.415,186.794 -361.753,186.36 -360.657,185.717C-359.373,184.959 -358.388,184.58 -357.708,184.58C-357.596,184.58 -357.444,184.601 -357.254,184.639C-357.066,184.678 -356.913,184.697 -356.8,184.697C-356.538,184.697 -356.111,184.555 -355.525,184.27C-354.939,183.987 -354.598,183.731 -354.506,183.504C-354.408,183.275 -354.361,182.691 -354.361,181.745C-354.361,179.592 -354.929,177.982 -356.064,176.926C-357.047,175.981 -358.672,175.301 -360.941,174.883C-361.545,177.037 -363.248,178.117 -366.044,178.117C-366.953,178.117 -367.86,177.568 -368.767,176.471C-369.674,175.373 -370.128,174.372 -370.128,173.464C-370.128,172.065 -369.542,170.913 -368.37,170.005C-369.314,169.024 -369.788,168.022 -369.788,166.999C-369.788,166.055 -369.496,165.223 -368.909,164.503C-368.323,163.787 -367.556,163.37 -366.612,163.255C-366.686,162.047 -366.291,161.213 -365.422,160.76C-365.837,160.346 -366.044,159.61 -366.044,158.549C-366.044,157.303 -365.63,156.262 -364.797,155.43C-363.967,154.6 -362.926,154.182 -361.68,154.182C-360.317,154.182 -359.201,154.657 -358.332,155.6C-357.234,151.858 -354.873,149.987 -351.243,149.987C-349.354,149.987 -347.689,150.743 -346.253,152.257C-345.723,152.822 -345.46,153.125 -345.46,153.162C-345.912,153.162 -345.685,153.076 -344.779,152.908C-343.87,152.737 -343.211,152.651 -342.793,152.651C-341.319,152.651 -340.015,153.201 -338.878,154.297C-337.896,155.281 -337.215,156.526 -336.836,158.039C-336.573,158.078 -336.157,158.19 -335.591,158.38C-334.759,158.797 -334.342,159.515 -334.342,160.535C-334.342,160.723 -334.494,161.084 -334.796,161.614C-332.377,162.975 -331.166,164.865 -331.166,167.284C-331.166,167.965 -331.432,168.911 -331.959,170.12C-330.973,170.689 -330.481,171.521 -330.481,172.618ZM-353.849,175.113L-353.849,174.377C-353.849,173.508 -354.273,172.713 -355.124,171.995C-355.975,171.275 -356.834,170.918 -357.704,170.918C-358.764,170.918 -359.746,171.164 -360.653,171.652C-358.649,171.542 -356.382,172.693 -353.849,175.113ZM-354.869,168.083C-355.435,167.437 -355.927,166.777 -356.343,166.098C-357.932,166.512 -358.726,166.987 -358.726,167.514C-358.273,167.477 -357.61,167.561 -356.742,167.77C-355.872,167.979 -355.246,168.083 -354.869,168.083ZM-351.407,166.322L-351.407,163.827C-352.316,163.678 -352.866,163.601 -353.053,163.601L-353.053,164.452L-351.407,166.322ZM-344.035,164.736C-344.489,164.547 -345.34,164.168 -346.589,163.601L-346.589,168.478C-344.811,167.456 -343.961,166.21 -344.035,164.736ZM-340.919,171.428L-342.165,169.899C-342.92,170.428 -343.686,170.965 -344.463,171.514C-345.238,172.061 -345.908,172.676 -346.474,173.358C-344.775,172.447 -342.92,171.807 -340.919,171.428Z" style="fill:rgb(13,15,15);fill-rule:nonzero;"/>
        </g>
    </g>
</svg>
