<?xml version="1.0" encoding="UTF-8" standalone="no"?>
<!DOCTYPE svg PUBLIC "-//W3C//DTD SVG 1.1//EN" "http://www.w3.org/Graphics/SVG/1.1/DTD/svg11.dtd">
<svg width="100%" height="100%" viewBox="0 0 100 100" version="1.1" xmlns="http://www.w3.org/2000/svg" xmlns:xlink="http://www.w3.org/1999/xlink" xml:space="preserve" xmlns:serif="http://www.serif.com/" style="fill-rule:evenodd;clip-rule:evenodd;stroke-linejoin:round;stroke-miterlimit:2;">
    <g transform="matrix(1,0,0,1,-630,-210)">
        <g transform="matrix(1,0,0,1,945,210.002)">
            <circle cx="-265" cy="49.998" r="50" style="fill:rgb(186,177,171);"/>
        </g>
        <g transform="matrix(1,0,0,1,945,210.002)">
            <path d="M-224.305,48.619C-224.305,54.137 -226.313,57.9 -230.325,59.906C-231.497,60.492 -235.175,61.285 -241.362,62.289C-245.374,62.959 -247.38,64.506 -247.38,66.928L-247.38,77.086C-247.38,77.508 -247.255,78.801 -247.005,80.975L-246.628,84.989C-246.628,86.244 -246.921,88.295 -247.507,91.135C-249.095,91.469 -250.935,91.844 -253.025,92.267C-253.695,89.756 -254.029,88.043 -254.029,87.121C-254.029,86.705 -253.924,86.076 -253.716,85.239C-253.509,84.405 -253.4,83.778 -253.4,83.356C-253.4,82.776 -253.92,81.143 -254.959,78.469L-256.904,78.469C-257.162,78.887 -257.248,79.43 -257.164,80.098C-256.83,81.52 -256.705,82.731 -256.787,83.735C-258.209,84.739 -260.174,86.076 -262.682,87.748C-263.268,87.582 -263.475,87.498 -263.311,87.498L-263.311,78.594C-263.475,78.178 -263.895,78.013 -264.565,78.092L-266.069,78.092L-267.573,89.879C-268.747,89.963 -270.165,89.963 -271.837,89.879C-272.425,87.121 -273.468,83.026 -274.972,77.59L-275.976,77.59C-276.898,80.519 -277.398,82.109 -277.482,82.359C-277.482,82.693 -277.378,83.34 -277.168,84.301C-276.961,85.263 -276.855,85.91 -276.855,86.244C-276.855,86.494 -276.939,87.121 -277.105,88.125L-277.482,91.135C-277.65,91.301 -277.859,91.385 -278.109,91.385C-280.617,91.385 -282.291,90.758 -283.125,89.506C-283.961,88.25 -284.297,86.494 -284.129,84.235L-283.125,69.188C-283.125,68.936 -283.043,68.602 -282.875,68.184C-282.711,67.766 -282.625,67.473 -282.625,67.307C-282.625,66.637 -283.336,65.299 -284.756,63.293C-285.004,63.211 -286.305,62.916 -288.643,62.414C-290.067,62.08 -292.868,61.496 -297.045,60.658C-302.816,59.574 -305.699,54.933 -305.699,46.738C-305.699,34.531 -300.681,24.373 -290.648,16.263C-290.234,18.521 -289.521,21.529 -288.519,25.292C-287.765,25.462 -286.134,25.837 -283.628,26.421C-283.124,26.589 -280.575,27.509 -275.976,29.181C-278.32,27.759 -281.369,25.462 -285.132,22.283C-286.554,20.611 -287.265,17.812 -287.265,13.883C-287.265,12.963 -285.675,11.875 -282.497,10.619C-279.657,9.449 -277.522,8.783 -276.101,8.613C-271.587,8.031 -268.117,7.734 -265.691,7.734C-255.242,7.734 -246.8,10.412 -240.363,15.763C-242.451,18.189 -246.047,20.777 -251.146,23.536C-249.138,23.62 -246.212,22.829 -242.367,21.153C-238.523,19.483 -236.892,18.645 -237.476,18.645C-236.808,18.645 -235.468,19.985 -233.462,22.659C-231.958,24.665 -230.747,26.466 -229.825,28.05C-227.151,32.818 -225.354,37.958 -224.432,43.476C-224.432,45.402 -224.391,46.781 -224.307,47.615L-224.307,48.619L-224.305,48.619ZM-272.336,50.877C-272.336,47.283 -273.904,43.875 -277.039,40.654C-280.176,37.435 -283.541,35.828 -287.135,35.828C-290.313,35.828 -293.112,37.176 -295.537,39.867C-297.963,42.56 -299.174,45.549 -299.174,48.83C-299.174,51.689 -297.795,53.543 -295.035,54.383C-293.279,54.889 -290.816,55.184 -287.637,55.266L-280.739,55.266C-275.141,55.35 -272.336,53.887 -272.336,50.877ZM-258.668,66.43L-258.668,62.541C-259.252,61.455 -259.838,60.326 -260.422,59.154C-260.924,57.48 -261.844,55.14 -263.182,52.129L-264.563,66.803C-264.563,67.975 -264.813,68.559 -265.315,68.559C-265.649,68.559 -265.899,68.477 -266.067,68.311C-266.653,59.448 -266.946,55.602 -266.946,56.77L-266.946,52.383C-267.114,52.129 -267.321,52.004 -267.571,52.004C-270.415,54.934 -271.835,59.656 -271.835,66.176C-271.835,69.772 -271.505,71.987 -270.833,72.824C-270.163,72.658 -269.411,72.365 -268.575,71.947C-268.241,71.779 -267.28,71.695 -265.688,71.695C-264.104,71.695 -262.178,72.197 -259.922,73.199C-259.086,73.199 -258.668,70.943 -258.668,66.43ZM-230.324,48.955C-230.324,45.588 -231.578,42.58 -234.086,39.93C-236.596,37.282 -239.481,35.955 -242.738,35.955C-246.25,35.955 -249.533,37.562 -252.584,40.781C-255.637,44 -257.162,47.365 -257.162,50.877C-257.162,53.805 -255.742,55.266 -252.898,55.266L-238.476,55.266C-233.043,55.184 -230.324,53.08 -230.324,48.955Z" style="fill:rgb(13,15,15);fill-rule:nonzero;"/>
        </g>
    </g>
</svg>
