<?xml version="1.0" encoding="UTF-8" standalone="no"?>
<!DOCTYPE svg PUBLIC "-//W3C//DTD SVG 1.1//EN" "http://www.w3.org/Graphics/SVG/1.1/DTD/svg11.dtd">
<svg width="100%" height="100%" viewBox="0 0 100 100" version="1.1" xmlns="http://www.w3.org/2000/svg" xmlns:xlink="http://www.w3.org/1999/xlink" xml:space="preserve" xmlns:serif="http://www.serif.com/" style="fill-rule:evenodd;clip-rule:evenodd;stroke-linejoin:round;stroke-miterlimit:2;">
    <g transform="matrix(1,0,0,1,-420,-315.003)">
        <g transform="matrix(1,0,0,1,945,210.002)">
            <path d="M-439.651,119.637C-430.599,128.688 -425,141.188 -425,154.997C-425,182.613 -447.387,205 -475,205C-488.807,205 -501.305,199.404 -510.354,190.354" style="fill:rgb(228,153,119);fill-rule:nonzero;"/>
            <path d="M-510.354,190.354C-519.403,181.307 -525,168.805 -525,154.998C-525,127.385 -502.613,105.001 -475,105.001C-461.198,105.001 -448.699,110.595 -439.651,119.638" style="fill:rgb(186,177,171);fill-rule:nonzero;"/>
        </g>
        <g transform="matrix(1,0,0,1,945,210.002)">
            <path d="M-436.7,179.439C-438.418,183.539 -441.83,185.585 -446.94,185.585C-447.877,185.585 -448.892,185.7 -449.984,185.935C-451.623,186.288 -452.442,186.775 -452.442,187.4C-452.442,187.595 -452.306,187.818 -452.032,188.074C-451.761,188.327 -451.524,188.455 -451.329,188.455C-452.306,188.455 -451.643,188.484 -449.342,188.54C-447.039,188.6 -445.595,188.629 -445.009,188.629C-448.403,190.618 -454.079,191.535 -462.038,191.379C-464.652,191.342 -466.895,190.191 -468.767,187.928C-470.602,185.782 -471.518,183.383 -471.518,180.731C-471.518,177.921 -470.572,175.533 -468.679,173.561C-466.789,171.593 -464.437,170.608 -461.628,170.608C-461.005,170.608 -460.175,170.745 -459.142,171.016C-458.108,171.289 -457.415,171.426 -457.065,171.426C-455.621,171.426 -453.826,170.829 -451.68,169.641C-449.534,168.452 -448.52,167.856 -448.637,167.856C-449.028,171.953 -450.393,174.705 -452.734,176.106C-454.412,177.084 -455.25,178.04 -455.25,178.973C-455.25,179.559 -454.9,180.028 -454.198,180.379C-453.652,180.65 -453.047,180.787 -452.383,180.787C-451.369,180.787 -450.375,180.164 -449.399,178.915C-448.425,177.668 -447.996,176.536 -448.113,175.521C-448.229,174.349 -448.15,172.945 -447.878,171.308C-447.801,170.838 -447.517,170.263 -447.03,169.581C-446.542,168.897 -446.102,168.477 -445.713,168.319C-445.713,168.673 -445.84,169.258 -446.093,170.075C-446.347,170.895 -446.473,171.502 -446.473,171.889C-446.473,172.749 -446.239,173.412 -445.77,173.879C-445.069,173.608 -444.446,172.729 -443.898,171.245C-443.43,170.115 -443.158,169.021 -443.078,167.971C-444.718,167.893 -446.289,167.151 -447.789,165.744C-449.29,164.34 -450.041,162.819 -450.041,161.181C-450.041,160.91 -450.004,160.634 -449.924,160.362C-449.692,160.715 -449.341,161.261 -448.871,162.002C-448.209,162.977 -447.701,163.465 -447.35,163.465C-446.882,163.465 -446.648,162.977 -446.648,162.002C-446.648,160.753 -446.98,159.622 -447.643,158.607C-448.386,157.396 -449.342,156.793 -450.51,156.793C-451.058,156.793 -451.876,157.085 -452.968,157.671C-454.061,158.255 -455.056,158.549 -455.951,158.549C-456.224,158.549 -457.435,158.196 -459.58,157.495C-455.797,156.87 -453.904,156.305 -453.904,155.796C-453.904,154.471 -456.498,153.573 -461.687,153.108C-462.195,153.069 -463.13,152.991 -464.496,152.873C-464.341,152.679 -463.228,152.466 -461.16,152.229C-459.405,152.037 -458.177,151.936 -457.475,151.936C-448.19,151.936 -442.3,156.442 -439.802,165.457C-439.371,165.099 -439.156,164.507 -439.156,163.677C-439.156,162.609 -439.469,161.265 -440.094,159.644C-440.329,159.009 -440.701,158.06 -441.207,156.795C-438.009,160.87 -436.407,164.733 -436.407,168.378C-436.407,170.3 -436.858,172.045 -437.755,173.61C-438.338,174.669 -439.433,176.02 -441.031,177.669C-442.631,179.314 -443.722,180.588 -444.308,181.49C-442.162,180.904 -440.757,180.455 -440.094,180.143C-438.613,179.479 -437.266,178.483 -436.057,177.158C-436.057,177.668 -436.272,178.43 -436.7,179.439ZM-462.214,156.443C-462.214,157.144 -462.605,157.595 -463.384,157.791L-464.905,158.023C-465.452,158.295 -466.252,159.371 -467.303,161.242C-467.422,160.658 -467.596,159.839 -467.831,158.785C-468.182,158.822 -468.766,159.137 -469.586,159.721C-469.937,159.994 -470.503,160.405 -471.285,160.95C-471.05,159.547 -470.268,158.124 -468.943,156.679C-467.539,155.081 -466.173,154.283 -464.847,154.283C-463.092,154.281 -462.214,155.002 -462.214,156.443ZM-452.032,161.828C-452.032,162.49 -452.393,163.048 -453.115,163.496C-453.837,163.943 -454.549,164.169 -455.25,164.169C-456.188,164.169 -457.027,163.645 -457.767,162.588C-458.665,161.303 -459.581,160.463 -460.517,160.072C-460.323,159.877 -460.088,159.779 -459.813,159.779C-459.464,159.779 -458.869,160.05 -458.03,160.597C-457.193,161.146 -456.655,161.417 -456.42,161.417C-456.225,161.417 -455.904,161.146 -455.456,160.597C-455.008,160.05 -454.51,159.779 -453.963,159.779C-452.675,159.779 -452.032,160.463 -452.032,161.828Z" style="fill:rgb(13,15,15);fill-rule:nonzero;"/>
        </g>
        <g transform="matrix(1,0,0,1,945,210.002)">
            <path d="M-471.743,133.111C-471.743,135.812 -472.725,137.654 -474.691,138.636C-475.265,138.923 -477.064,139.314 -480.094,139.802C-482.058,140.131 -483.04,140.89 -483.04,142.073L-483.04,147.046C-483.04,147.255 -482.977,147.888 -482.856,148.952L-482.671,150.917C-482.671,151.53 -482.815,152.534 -483.102,153.925C-483.879,154.088 -484.78,154.273 -485.802,154.48C-486.131,153.251 -486.293,152.411 -486.293,151.96C-486.293,151.757 -486.243,151.448 -486.141,151.039C-486.039,150.631 -485.987,150.323 -485.987,150.118C-485.987,149.834 -486.24,149.034 -486.749,147.725L-487.702,147.725C-487.828,147.928 -487.869,148.194 -487.829,148.52C-487.664,149.216 -487.604,149.809 -487.644,150.301C-488.341,150.792 -489.301,151.447 -490.529,152.266C-490.818,152.184 -490.918,152.143 -490.837,152.143L-490.837,147.784C-490.919,147.582 -491.123,147.499 -491.451,147.539L-492.188,147.539L-492.925,153.31C-493.498,153.351 -494.193,153.351 -495.011,153.31C-495.298,151.96 -495.81,149.956 -496.545,147.295L-497.038,147.295C-497.488,148.728 -497.734,149.505 -497.775,149.628C-497.775,149.791 -497.723,150.108 -497.62,150.579C-497.519,151.05 -497.468,151.366 -497.468,151.53C-497.468,151.651 -497.51,151.96 -497.593,152.451L-497.776,153.925C-497.859,154.005 -497.96,154.046 -498.083,154.046C-499.311,154.046 -500.131,153.74 -500.538,153.127C-500.949,152.513 -501.114,151.651 -501.031,150.547L-500.538,143.181C-500.538,143.06 -500.499,142.896 -500.417,142.689C-500.335,142.486 -500.294,142.341 -500.294,142.261C-500.294,141.933 -500.642,141.277 -501.337,140.294C-501.46,140.255 -502.095,140.11 -503.241,139.864C-503.937,139.701 -505.308,139.414 -507.353,139.006C-510.177,138.476 -511.59,136.203 -511.59,132.191C-511.59,126.214 -509.134,121.243 -504.223,117.273C-504.019,118.378 -503.67,119.849 -503.179,121.691C-502.811,121.777 -502.012,121.961 -500.785,122.246C-500.538,122.327 -499.29,122.779 -497.04,123.598C-498.186,122.903 -499.68,121.778 -501.52,120.221C-502.217,119.403 -502.566,118.032 -502.566,116.108C-502.566,115.658 -501.788,115.127 -500.231,114.509C-498.84,113.938 -497.797,113.612 -497.1,113.53C-494.891,113.244 -493.192,113.098 -492.004,113.098C-486.889,113.098 -482.755,114.41 -479.603,117.03C-480.625,118.218 -482.386,119.483 -484.882,120.837C-483.9,120.878 -482.467,120.489 -480.584,119.669C-478.702,118.853 -477.904,118.442 -478.19,118.442C-477.863,118.442 -477.208,119.096 -476.225,120.405C-475.49,121.387 -474.896,122.27 -474.445,123.046C-473.135,125.379 -472.255,127.898 -471.804,130.599C-471.804,131.54 -471.784,132.215 -471.743,132.623L-471.743,133.111ZM-495.259,134.219C-495.259,132.458 -496.026,130.79 -497.56,129.213C-499.096,127.637 -500.744,126.85 -502.503,126.85C-504.058,126.85 -505.428,127.51 -506.617,128.828C-507.804,130.147 -508.397,131.61 -508.397,133.217C-508.397,134.618 -507.722,135.527 -506.37,135.937C-505.511,136.185 -504.305,136.329 -502.749,136.371L-499.373,136.371C-496.631,136.407 -495.259,135.689 -495.259,134.219ZM-488.567,141.831L-488.567,139.93C-488.853,139.397 -489.14,138.843 -489.425,138.27C-489.671,137.453 -490.122,136.307 -490.776,134.831L-491.452,142.017C-491.452,142.591 -491.573,142.876 -491.82,142.876C-491.983,142.876 -492.107,142.836 -492.189,142.754C-492.476,138.415 -492.618,136.53 -492.618,137.107L-492.618,134.959C-492.701,134.833 -492.803,134.771 -492.926,134.771C-494.317,136.208 -495.012,138.519 -495.012,141.709C-495.012,143.47 -494.849,144.554 -494.522,144.966C-494.193,144.883 -493.827,144.74 -493.415,144.535C-493.252,144.452 -492.782,144.412 -492.003,144.412C-491.228,144.412 -490.284,144.658 -489.18,145.147C-488.771,145.146 -488.567,144.042 -488.567,141.831ZM-474.691,133.275C-474.691,131.629 -475.305,130.157 -476.533,128.857C-477.762,127.56 -479.173,126.912 -480.768,126.912C-482.487,126.912 -484.096,127.699 -485.589,129.275C-487.083,130.849 -487.831,132.498 -487.831,134.217C-487.831,135.65 -487.134,136.365 -485.743,136.365L-478.683,136.365C-476.021,136.325 -474.691,135.297 -474.691,133.275Z" style="fill:rgb(13,15,15);fill-rule:nonzero;"/>
        </g>
    </g>
</svg>
