<?xml version="1.0" encoding="UTF-8" standalone="no"?>
<!DOCTYPE svg PUBLIC "-//W3C//DTD SVG 1.1//EN" "http://www.w3.org/Graphics/SVG/1.1/DTD/svg11.dtd">
<svg width="100%" height="100%" viewBox="0 0 100 100" version="1.1" xmlns="http://www.w3.org/2000/svg" xmlns:xlink="http://www.w3.org/1999/xlink" xml:space="preserve" xmlns:serif="http://www.serif.com/" style="fill-rule:evenodd;clip-rule:evenodd;stroke-linejoin:round;stroke-miterlimit:2;">
    <g transform="matrix(1,0,0,1,-525,-210.002)">
        <g transform="matrix(1,0,0,1,945,210.002)">
            <circle cx="-370" cy="50" r="50" style="fill:rgb(193,215,233);"/>
        </g>
        <g transform="matrix(1,0,0,1,945,210.002)">
            <path d="M-352.512,83.719C-357.299,88.59 -363.196,91.026 -370.2,91.026C-378.061,91.026 -384.298,88.336 -388.911,82.953C-393.27,77.826 -395.448,71.291 -395.448,63.347C-395.448,54.804 -391.731,45.061 -384.298,34.123C-378.234,25.154 -371.099,17.293 -362.896,10.543C-364.093,16.012 -364.689,19.898 -364.689,22.205C-364.689,27.504 -363.025,32.672 -359.693,37.713C-355.591,43.693 -352.474,48.139 -350.336,51.041C-347.004,56.084 -345.338,60.996 -345.338,65.778C-345.336,72.871 -347.729,78.852 -352.512,83.719ZM-352.641,56.357C-353.922,53.496 -355.418,51.595 -357.127,50.654C-356.871,51.168 -356.742,51.894 -356.742,52.834C-356.742,54.629 -357.254,57.191 -358.281,60.523L-359.945,65.65C-359.945,68.64 -358.453,70.136 -355.461,70.136C-352.301,70.136 -350.719,68.041 -350.719,63.855C-350.719,61.721 -351.359,59.223 -352.641,56.357Z" style="fill:rgb(13,15,15);fill-rule:nonzero;"/>
        </g>
    </g>
</svg>
