<?xml version="1.0" encoding="UTF-8" standalone="no"?>
<!DOCTYPE svg PUBLIC "-//W3C//DTD SVG 1.1//EN" "http://www.w3.org/Graphics/SVG/1.1/DTD/svg11.dtd">
<svg width="100%" height="100%" viewBox="0 0 100 100" version="1.1" xmlns="http://www.w3.org/2000/svg" xmlns:xlink="http://www.w3.org/1999/xlink" xml:space="preserve" xmlns:serif="http://www.serif.com/" style="fill-rule:evenodd;clip-rule:evenodd;stroke-linejoin:round;stroke-miterlimit:2;">
    <g transform="matrix(1,0,0,1,-210,-315.003)">
        <g transform="matrix(1,0,0,1,945,210.002)">
            <path d="M-649.651,119.637C-640.599,128.688 -635,141.188 -635,154.997C-635,182.613 -657.387,205 -685,205C-698.807,205 -711.305,199.404 -720.354,190.354" style="fill:rgb(186,177,171);fill-rule:nonzero;"/>
            <path d="M-720.354,190.354C-729.403,181.307 -735,168.805 -735,154.998C-735,127.385 -712.613,105.001 -685,105.001C-671.198,105.001 -658.699,110.595 -649.651,119.638" style="fill:rgb(193,215,233);fill-rule:nonzero;"/>
        </g>
        <g transform="matrix(1,0,0,1,945,210.002)">
            <path d="M-693.884,153.156C-696.576,155.892 -699.891,157.263 -703.83,157.263C-708.252,157.263 -711.759,155.75 -714.354,152.722C-716.806,149.837 -718.031,146.162 -718.031,141.695C-718.031,136.89 -715.941,131.411 -711.76,125.259C-708.349,120.215 -704.337,115.794 -699.723,111.997C-700.396,115.074 -700.732,117.259 -700.732,118.556C-700.732,121.536 -699.797,124.445 -697.921,127.279C-695.615,130.642 -693.86,133.142 -692.659,134.775C-690.785,137.611 -689.847,140.375 -689.847,143.062C-689.847,147.055 -691.194,150.416 -693.884,153.156ZM-693.956,137.77C-694.677,136.159 -695.517,135.089 -696.479,134.559C-696.334,134.848 -696.263,135.256 -696.263,135.787C-696.263,136.797 -696.55,138.237 -697.127,140.11L-698.065,142.995C-698.065,144.676 -697.224,145.516 -695.542,145.516C-693.765,145.516 -692.874,144.338 -692.874,141.985C-692.875,140.783 -693.236,139.378 -693.956,137.77Z" style="fill:rgb(13,15,15);fill-rule:nonzero;"/>
        </g>
        <g transform="matrix(1,0,0,1,945,210.002)">
            <path d="M-645.38,170.99C-645.38,173.691 -646.362,175.534 -648.327,176.515C-648.901,176.802 -650.701,177.193 -653.731,177.681C-655.694,178.011 -656.677,178.767 -656.677,179.952L-656.677,184.925C-656.677,185.134 -656.614,185.767 -656.493,186.83L-656.308,188.796C-656.308,189.409 -656.452,190.413 -656.739,191.804C-657.516,191.967 -658.417,192.152 -659.44,192.359C-659.768,191.129 -659.931,190.29 -659.931,189.839C-659.931,189.636 -659.881,189.327 -659.778,188.918C-659.676,188.511 -659.624,188.202 -659.624,187.996C-659.624,187.712 -659.877,186.913 -660.386,185.602L-661.339,185.602C-661.465,185.807 -661.506,186.074 -661.466,186.399C-661.302,187.096 -661.241,187.688 -661.281,188.18C-661.978,188.671 -662.938,189.326 -664.166,190.145C-664.455,190.063 -664.555,190.022 -664.474,190.022L-664.474,185.663C-664.555,185.46 -664.759,185.378 -665.088,185.417L-665.825,185.417L-666.562,191.188C-667.135,191.229 -667.83,191.229 -668.648,191.188C-668.935,189.837 -669.447,187.834 -670.183,185.171L-670.676,185.171C-671.126,186.604 -671.371,187.382 -671.413,187.505C-671.413,187.668 -671.361,187.984 -671.258,188.456C-671.157,188.928 -671.105,189.243 -671.105,189.407C-671.105,189.529 -671.147,189.837 -671.23,190.328L-671.414,191.803C-671.497,191.882 -671.597,191.923 -671.72,191.923C-672.948,191.923 -673.768,191.616 -674.175,191.004C-674.587,190.389 -674.751,189.529 -674.668,188.424L-674.175,181.059C-674.175,180.936 -674.136,180.772 -674.054,180.567C-673.972,180.364 -673.931,180.219 -673.931,180.139C-673.931,179.811 -674.279,179.155 -674.974,178.171C-675.097,178.131 -675.731,177.986 -676.878,177.74C-677.573,177.578 -678.945,177.291 -680.99,176.883C-683.815,176.352 -685.228,174.08 -685.228,170.069C-685.228,164.091 -682.771,159.12 -677.861,155.149C-677.657,156.255 -677.307,157.727 -676.816,159.569C-676.448,159.653 -675.649,159.838 -674.422,160.123C-674.175,160.204 -672.928,160.655 -670.677,161.474C-671.822,160.779 -673.317,159.656 -675.157,158.099C-675.854,157.281 -676.203,155.909 -676.203,153.986C-676.203,153.534 -675.425,153.004 -673.868,152.386C-672.477,151.814 -671.434,151.49 -670.737,151.407C-668.528,151.121 -666.829,150.976 -665.641,150.976C-660.526,150.976 -656.391,152.287 -653.24,154.908C-654.262,156.096 -656.023,157.361 -658.519,158.714C-657.537,158.755 -656.104,158.367 -654.221,157.546C-652.339,156.731 -651.541,156.318 -651.827,156.318C-651.5,156.318 -650.844,156.974 -649.862,158.283C-649.127,159.265 -648.533,160.146 -648.082,160.923C-646.772,163.256 -645.892,165.776 -645.441,168.475C-645.441,169.417 -645.421,170.092 -645.38,170.5L-645.38,170.99ZM-668.896,172.098C-668.896,170.337 -669.663,168.669 -671.197,167.092C-672.733,165.516 -674.382,164.729 -676.141,164.729C-677.696,164.729 -679.066,165.389 -680.254,166.707C-681.441,168.026 -682.034,169.489 -682.034,171.097C-682.034,172.497 -681.359,173.406 -680.008,173.816C-679.148,174.064 -677.942,174.208 -676.387,174.25L-673.01,174.25C-670.267,174.285 -668.896,173.568 -668.896,172.098ZM-662.203,179.71L-662.203,177.809C-662.489,177.276 -662.776,176.721 -663.061,176.149C-663.307,175.332 -663.758,174.186 -664.412,172.71L-665.088,179.894C-665.088,180.47 -665.21,180.755 -665.457,180.755C-665.62,180.755 -665.744,180.715 -665.825,180.632C-666.112,176.294 -666.254,174.41 -666.254,174.986L-666.254,172.838C-666.337,172.712 -666.439,172.65 -666.562,172.65C-667.953,174.087 -668.648,176.398 -668.648,179.588C-668.648,181.349 -668.485,182.433 -668.158,182.845C-667.829,182.763 -667.463,182.619 -667.051,182.414C-666.888,182.331 -666.418,182.291 -665.64,182.291C-664.865,182.291 -663.92,182.536 -662.817,183.026C-662.407,183.023 -662.203,181.921 -662.203,179.71ZM-648.327,171.154C-648.327,169.508 -648.941,168.035 -650.169,166.736C-651.397,165.439 -652.809,164.791 -654.403,164.791C-656.123,164.791 -657.731,165.578 -659.224,167.152C-660.719,168.728 -661.466,170.376 -661.466,172.097C-661.466,173.529 -660.769,174.244 -659.378,174.244L-652.319,174.244C-649.657,174.204 -648.327,173.176 -648.327,171.154Z" style="fill:rgb(13,15,15);fill-rule:nonzero;"/>
        </g>
    </g>
</svg>
