<?xml version="1.0" encoding="UTF-8" standalone="no"?>
<!DOCTYPE svg PUBLIC "-//W3C//DTD SVG 1.1//EN" "http://www.w3.org/Graphics/SVG/1.1/DTD/svg11.dtd">
<svg width="100%" height="100%" viewBox="0 0 100 100" version="1.1" xmlns="http://www.w3.org/2000/svg" xmlns:xlink="http://www.w3.org/1999/xlink" xml:space="preserve" xmlns:serif="http://www.serif.com/" style="fill-rule:evenodd;clip-rule:evenodd;stroke-linejoin:round;stroke-miterlimit:2;">
    <g transform="matrix(1,0,0,1,-315,-315.003)">
        <g transform="matrix(1,0,0,1,945,210.002)">
            <path d="M-544.651,119.637C-535.599,128.688 -530,141.188 -530,154.997C-530,182.613 -552.387,205 -580,205C-593.807,205 -606.305,199.404 -615.354,190.354" style="fill:rgb(228,153,119);fill-rule:nonzero;"/>
            <path d="M-615.354,190.354C-624.403,181.307 -630,168.805 -630,154.998C-630,127.385 -607.613,105.001 -580,105.001C-566.198,105.001 -553.699,110.595 -544.651,119.638" style="fill:rgb(193,215,233);fill-rule:nonzero;"/>
        </g>
        <g transform="matrix(1,0,0,1,945,210.002)">
            <path d="M-541.7,179.439C-543.418,183.539 -546.83,185.585 -551.94,185.585C-552.877,185.585 -553.892,185.7 -554.984,185.935C-556.623,186.288 -557.442,186.775 -557.442,187.4C-557.442,187.595 -557.306,187.818 -557.032,188.074C-556.76,188.327 -556.524,188.455 -556.329,188.455C-557.306,188.455 -556.643,188.484 -554.342,188.54C-552.039,188.6 -550.595,188.629 -550.009,188.629C-553.403,190.618 -559.079,191.535 -567.038,191.379C-569.652,191.342 -571.895,190.191 -573.767,187.928C-575.602,185.782 -576.518,183.383 -576.518,180.731C-576.518,177.921 -575.572,175.533 -573.679,173.561C-571.789,171.593 -569.437,170.608 -566.628,170.608C-566.005,170.608 -565.175,170.745 -564.142,171.016C-563.108,171.289 -562.415,171.426 -562.065,171.426C-560.621,171.426 -558.826,170.829 -556.68,169.641C-554.534,168.452 -553.52,167.856 -553.637,167.856C-554.028,171.953 -555.393,174.705 -557.734,176.106C-559.412,177.084 -560.25,178.04 -560.25,178.973C-560.25,179.559 -559.9,180.028 -559.198,180.379C-558.652,180.65 -558.047,180.787 -557.383,180.787C-556.369,180.787 -555.375,180.164 -554.399,178.915C-553.425,177.668 -552.996,176.536 -553.113,175.521C-553.229,174.349 -553.15,172.945 -552.878,171.308C-552.801,170.838 -552.517,170.263 -552.03,169.581C-551.542,168.897 -551.102,168.477 -550.713,168.319C-550.713,168.673 -550.84,169.258 -551.093,170.075C-551.347,170.895 -551.473,171.502 -551.473,171.889C-551.473,172.749 -551.239,173.412 -550.77,173.879C-550.069,173.608 -549.446,172.729 -548.898,171.245C-548.43,170.115 -548.158,169.021 -548.078,167.971C-549.718,167.893 -551.289,167.151 -552.789,165.744C-554.29,164.34 -555.041,162.819 -555.041,161.181C-555.041,160.91 -555.004,160.634 -554.924,160.362C-554.692,160.715 -554.341,161.261 -553.871,162.002C-553.209,162.977 -552.701,163.465 -552.35,163.465C-551.882,163.465 -551.648,162.977 -551.648,162.002C-551.648,160.753 -551.98,159.622 -552.643,158.607C-553.386,157.396 -554.342,156.793 -555.51,156.793C-556.058,156.793 -556.876,157.085 -557.968,157.671C-559.061,158.255 -560.056,158.549 -560.951,158.549C-561.224,158.549 -562.435,158.196 -564.58,157.495C-560.797,156.87 -558.904,156.305 -558.904,155.796C-558.904,154.471 -561.498,153.573 -566.687,153.108C-567.195,153.069 -568.13,152.991 -569.496,152.873C-569.341,152.679 -568.228,152.466 -566.16,152.229C-564.405,152.037 -563.177,151.936 -562.475,151.936C-553.19,151.936 -547.3,156.442 -544.802,165.457C-544.371,165.099 -544.157,164.507 -544.157,163.677C-544.157,162.609 -544.469,161.265 -545.094,159.644C-545.329,159.009 -545.701,158.06 -546.207,156.795C-543.009,160.87 -541.407,164.733 -541.407,168.378C-541.407,170.3 -541.858,172.045 -542.755,173.61C-543.338,174.669 -544.433,176.02 -546.031,177.669C-547.631,179.314 -548.722,180.588 -549.308,181.49C-547.162,180.904 -545.757,180.455 -545.094,180.143C-543.613,179.479 -542.266,178.483 -541.057,177.158C-541.057,177.668 -541.272,178.43 -541.7,179.439ZM-567.214,156.443C-567.214,157.144 -567.605,157.595 -568.384,157.791L-569.905,158.023C-570.452,158.295 -571.252,159.371 -572.303,161.242C-572.422,160.658 -572.596,159.839 -572.831,158.785C-573.182,158.822 -573.766,159.137 -574.586,159.721C-574.937,159.994 -575.503,160.405 -576.285,160.95C-576.05,159.547 -575.268,158.124 -573.943,156.679C-572.539,155.081 -571.173,154.283 -569.847,154.283C-568.092,154.281 -567.214,155.002 -567.214,156.443ZM-557.032,161.828C-557.032,162.49 -557.393,163.048 -558.115,163.496C-558.837,163.943 -559.549,164.169 -560.25,164.169C-561.188,164.169 -562.027,163.645 -562.767,162.588C-563.665,161.303 -564.581,160.463 -565.517,160.072C-565.323,159.877 -565.088,159.779 -564.813,159.779C-564.464,159.779 -563.869,160.05 -563.03,160.597C-562.193,161.146 -561.655,161.417 -561.42,161.417C-561.225,161.417 -560.904,161.146 -560.456,160.597C-560.008,160.05 -559.51,159.779 -558.963,159.779C-557.675,159.779 -557.032,160.463 -557.032,161.828Z" style="fill:rgb(13,15,15);fill-rule:nonzero;"/>
        </g>
        <g transform="matrix(1,0,0,1,945,210.002)">
            <path d="M-588.884,153.156C-591.577,155.892 -594.891,157.263 -598.83,157.263C-603.252,157.263 -606.759,155.75 -609.354,152.722C-611.806,149.837 -613.031,146.162 -613.031,141.695C-613.031,136.89 -610.941,131.411 -606.759,125.259C-603.348,120.215 -599.336,115.794 -594.722,111.997C-595.395,115.074 -595.731,117.259 -595.731,118.556C-595.731,121.536 -594.796,124.445 -592.92,127.279C-590.614,130.642 -588.859,133.142 -587.658,134.775C-585.784,137.611 -584.846,140.375 -584.846,143.062C-584.847,147.055 -586.194,150.416 -588.884,153.156ZM-588.956,137.77C-589.677,136.159 -590.517,135.089 -591.479,134.559C-591.334,134.848 -591.263,135.256 -591.263,135.787C-591.263,136.797 -591.55,138.237 -592.127,140.11L-593.065,142.995C-593.065,144.676 -592.224,145.516 -590.542,145.516C-588.765,145.516 -587.874,144.338 -587.874,141.985C-587.875,140.783 -588.236,139.378 -588.956,137.77Z" style="fill:rgb(13,15,15);fill-rule:nonzero;"/>
        </g>
    </g>
</svg>
