<?xml version="1.0" encoding="UTF-8" standalone="no"?>
<!DOCTYPE svg PUBLIC "-//W3C//DTD SVG 1.1//EN" "http://www.w3.org/Graphics/SVG/1.1/DTD/svg11.dtd">
<svg width="100%" height="100%" viewBox="0 0 100 100" version="1.1" xmlns="http://www.w3.org/2000/svg" xmlns:xlink="http://www.w3.org/1999/xlink" xml:space="preserve" xmlns:serif="http://www.serif.com/" style="fill-rule:evenodd;clip-rule:evenodd;stroke-linejoin:round;stroke-miterlimit:2;">
    <g transform="matrix(1,0,0,1,-840,-315.002)">
        <g transform="matrix(1,0,0,1,945,210.002)">
            <path d="M-19.651,119.637C-10.599,128.688 -5,141.188 -5,154.997C-5,182.613 -27.387,205 -55,205C-68.807,205 -81.305,199.404 -90.354,190.354" style="fill:rgb(248,246,216);fill-rule:nonzero;"/>
            <path d="M-90.354,190.354C-99.404,181.307 -105,168.805 -105,154.998C-105,127.384 -82.613,105 -55,105C-41.198,105 -28.699,110.593 -19.651,119.637" style="fill:rgb(163,192,149);fill-rule:nonzero;"/>
        </g>
        <g transform="matrix(1,0,0,1,945,210.002)">
            <path d="M-17,178.111C-19.436,175.847 -21.054,174.62 -21.848,174.429C-22.424,174.29 -22.983,174.627 -23.52,175.433C-24.057,176.242 -24.811,176.527 -25.788,176.293C-26.184,176.198 -26.963,175.858 -28.122,175.274C-29.06,176.16 -29.563,176.746 -29.633,177.033C-29.728,177.432 -29.544,177.971 -29.082,178.655C-28.622,179.338 -28.188,179.727 -27.781,179.826C-27.524,179.888 -27.16,179.917 -26.691,179.915C-26.223,179.914 -25.914,179.931 -25.764,179.966C-25.321,180.07 -25.295,180.937 -25.686,182.562C-26.056,184.116 -26.988,186.416 -28.479,189.455C-28.538,185.546 -29.089,183.465 -30.135,183.217C-30.28,183.182 -30.604,183.221 -31.107,183.328C-31.612,183.435 -31.971,183.465 -32.187,183.412C-33.235,183.162 -33.945,181.978 -34.318,179.867C-36.041,179.721 -37.075,180.373 -37.421,181.816C-37.595,182.542 -37.398,183.199 -36.832,183.791C-36.269,184.383 -36.009,184.771 -36.05,184.951C-36.283,185.928 -38.071,187.085 -41.406,188.425C-43.182,189.147 -44.413,189.653 -45.094,189.947C-44.435,189.419 -43.725,188.691 -42.967,187.765C-42.105,186.708 -41.596,185.859 -41.439,185.206C-41.353,184.847 -41.648,184.239 -42.323,183.392C-42.999,182.543 -43.249,181.758 -43.076,181.037C-42.93,180.423 -42.533,179.716 -41.882,178.917C-42.223,178.264 -42.717,177.857 -43.367,177.702C-44.811,177.353 -45.646,177.652 -45.871,178.592C-45.716,177.942 -45.833,178.43 -46.221,180.055C-46.471,181.255 -47.517,181.634 -49.359,181.196C-50.768,180.858 -53.055,179.967 -56.223,178.522C-52.242,178.483 -50.105,177.848 -49.812,176.619C-49.844,176.765 -49.815,176.313 -49.715,175.266C-49.593,174.114 -48.555,173.291 -46.607,172.803C-46.535,171.065 -47.201,170.026 -48.611,169.69C-48.827,169.637 -49.316,169.921 -50.074,170.541C-50.835,171.162 -51.467,171.413 -51.972,171.291C-52.839,171.086 -53.735,169.878 -54.656,167.671C-55.083,166.576 -55.744,164.948 -56.639,162.785C-55.912,163.418 -55.186,164.052 -54.457,164.681C-53.494,165.449 -52.687,165.908 -52.038,166.064C-51.532,166.185 -50.93,165.861 -50.23,165.092C-49.531,164.323 -48.784,164.034 -47.99,164.226C-47.879,164.252 -47.21,164.64 -45.977,165.394C-45.04,164.511 -44.511,163.818 -44.389,163.312C-44.287,162.877 -44.429,162.318 -44.82,161.633C-45.21,160.946 -45.622,160.554 -46.055,160.448C-46.236,160.403 -46.528,160.391 -46.933,160.41C-47.338,160.429 -47.631,160.415 -47.812,160.372C-48.461,160.215 -48.593,159.327 -48.204,157.701C-48.102,157.266 -47.094,154.891 -45.182,150.577C-45.348,151.108 -45.355,152.179 -45.203,153.78C-45.022,155.733 -44.516,156.805 -43.685,157.008C-43.541,157.04 -43.226,157.001 -42.739,156.89C-42.254,156.777 -41.887,156.75 -41.635,156.81C-40.805,157.009 -40.231,157.644 -39.912,158.712L-39.449,160.367C-38.691,160.55 -37.994,160.43 -37.359,160.01C-36.723,159.588 -36.313,158.999 -36.132,158.241C-35.943,157.446 -36.132,156.762 -36.7,156.184C-37.269,155.61 -37.529,155.212 -37.475,154.996C-37.294,154.238 -35.795,153.241 -32.98,152.006C-30.72,151.02 -29.271,150.469 -28.631,150.354C-30.685,152.08 -31.83,153.425 -32.063,154.403C-32.184,154.909 -32.008,155.524 -31.532,156.25C-30.937,157.117 -30.62,157.709 -30.582,158.022C-30.421,158.938 -30.728,160.067 -31.507,161.411C-30.696,162.331 -30.037,162.849 -29.53,162.972C-28.485,163.222 -27.831,162.806 -27.572,161.722C-27.546,161.613 -27.509,161.26 -27.46,160.66C-27.414,160.061 -27.362,159.729 -27.309,159.665C-27.043,159.194 -25.99,159.179 -24.148,159.62C-22.992,159.895 -20.669,160.795 -17.175,162.319C-18.022,162.344 -19.291,162.383 -20.984,162.436C-22.534,162.526 -23.373,162.84 -23.503,163.381C-23.563,163.635 -23.577,164.089 -23.543,164.745C-23.509,165.402 -23.526,165.877 -23.596,166.164C-23.716,166.671 -24.155,167.06 -24.908,167.339L-27.063,168.2C-26.818,169.097 -26.643,169.637 -26.532,169.816C-26.273,170.334 -25.84,170.67 -25.226,170.816C-24.792,170.92 -24.304,170.634 -23.761,169.962C-23.219,169.29 -22.549,169.049 -21.754,169.24C-20.779,169.471 -19.893,170.637 -19.097,172.738C-18.651,173.917 -17.953,175.706 -17,178.111ZM-28.274,172.092C-27.722,169.779 -28.09,167.571 -29.382,165.467C-30.674,163.363 -32.476,162.034 -34.786,161.483C-37.134,160.922 -39.359,161.278 -41.457,162.553C-43.556,163.823 -44.905,165.63 -45.503,167.968C-46.093,170.27 -45.713,172.473 -44.362,174.572C-43.012,176.669 -41.182,177.997 -38.869,178.55C-36.415,179.137 -34.172,178.822 -32.144,177.61C-30.118,176.396 -28.828,174.555 -28.274,172.092ZM-29.089,171.896C-29.615,174.099 -30.792,175.747 -32.619,176.835C-34.445,177.925 -36.462,178.208 -38.663,177.681C-40.794,177.169 -42.44,175.994 -43.603,174.148C-44.766,172.306 -45.092,170.32 -44.582,168.189C-44.079,166.093 -42.884,164.48 -40.99,163.347C-39.094,162.216 -37.101,161.902 -35.006,162.404C-32.912,162.904 -31.279,164.095 -30.108,165.98C-28.937,167.867 -28.596,169.838 -29.089,171.896Z" style="fill:rgb(13,15,15);fill-rule:nonzero;"/>
        </g>
        <g transform="matrix(1,0,0,1,945,210.002)">
            <path d="M-53.36,139.314C-53.36,140.072 -53.653,140.752 -54.239,141.357C-54.825,141.961 -55.497,142.265 -56.255,142.265C-57.462,142.265 -58.353,141.698 -58.918,140.564L-61.584,140.449C-62.152,140.449 -63.269,140.695 -64.93,141.187C-66.707,141.677 -67.728,142.077 -67.994,142.377C-68.408,142.829 -68.749,143.89 -69.014,145.552C-69.242,146.913 -69.353,147.916 -69.353,148.56C-69.353,149.581 -69.193,150.329 -68.873,150.799C-68.552,151.273 -67.889,151.669 -66.889,151.99C-65.888,152.309 -65.273,152.491 -65.045,152.526C-64.894,152.526 -64.649,152.508 -64.308,152.469L-63.627,152.469C-63.136,152.469 -62.626,152.546 -62.095,152.698C-61.34,152.927 -61.018,153.227 -61.13,153.606C-61.661,153.53 -62.586,153.643 -63.908,153.946L-62.322,154.74C-62.322,155.194 -62.965,155.421 -64.25,155.421C-64.592,155.421 -65.055,155.345 -65.64,155.194C-66.227,155.042 -66.615,154.967 -66.803,154.967L-67.539,154.967C-67.578,155.344 -67.69,155.91 -67.88,156.667C-68.525,156.628 -69.279,156.251 -70.15,155.531C-71.02,154.814 -71.568,154.454 -71.793,154.454C-72.021,154.454 -72.344,154.814 -72.758,155.531C-73.175,156.251 -73.382,156.742 -73.382,157.007C-73.873,156.742 -74.287,156.251 -74.631,155.531C-74.782,155.04 -74.952,154.549 -75.14,154.056C-75.519,154.095 -76.217,154.888 -77.239,156.439L-77.523,156.439C-77.599,156.325 -77.883,155.531 -78.375,154.056C-79.547,153.679 -80.643,153.49 -81.663,153.49C-82.154,153.49 -82.912,153.605 -83.933,153.83L-85.519,153.719C-85.294,153.49 -84.631,153.057 -83.536,152.414C-82.252,151.658 -81.267,151.279 -80.587,151.279C-80.475,151.279 -80.323,151.299 -80.133,151.336C-79.945,151.374 -79.792,151.393 -79.679,151.393C-79.416,151.393 -78.99,151.251 -78.404,150.966C-77.818,150.686 -77.477,150.43 -77.385,150.202C-77.287,149.974 -77.24,149.389 -77.24,148.441C-77.24,146.288 -77.808,144.681 -78.943,143.622C-79.926,142.678 -81.551,141.997 -83.82,141.582C-84.424,143.736 -86.127,144.814 -88.923,144.814C-89.832,144.814 -90.738,144.265 -91.646,143.168C-92.551,142.072 -93.007,141.07 -93.007,140.163C-93.007,138.764 -92.421,137.609 -91.249,136.701C-92.193,135.721 -92.667,134.719 -92.667,133.697C-92.667,132.75 -92.375,131.92 -91.788,131.199C-91.202,130.482 -90.435,130.066 -89.491,129.954C-89.565,128.743 -89.17,127.912 -88.3,127.458C-88.716,127.042 -88.923,126.305 -88.923,125.247C-88.923,124 -88.509,122.959 -87.676,122.128C-86.846,121.295 -85.804,120.878 -84.559,120.878C-83.196,120.878 -82.08,121.356 -81.211,122.298C-80.113,118.555 -77.752,116.684 -74.122,116.684C-72.232,116.684 -70.568,117.44 -69.132,118.953C-68.602,119.52 -68.339,119.823 -68.339,119.86C-68.791,119.86 -68.564,119.774 -67.658,119.604C-66.749,119.434 -66.09,119.348 -65.672,119.348C-64.198,119.348 -62.894,119.897 -61.757,120.994C-60.775,121.976 -60.094,123.223 -59.715,124.736C-59.452,124.775 -59.036,124.888 -58.469,125.076C-57.638,125.495 -57.221,126.211 -57.221,127.232C-57.221,127.42 -57.373,127.781 -57.675,128.308C-55.256,129.669 -54.045,131.56 -54.045,133.982C-54.045,134.661 -54.31,135.607 -54.838,136.816C-53.852,137.387 -53.36,138.221 -53.36,139.314ZM-76.727,141.811L-76.727,141.077C-76.727,140.207 -77.152,139.412 -78.003,138.694C-78.854,137.977 -79.713,137.617 -80.583,137.617C-81.643,137.617 -82.625,137.86 -83.532,138.352C-81.528,138.238 -79.26,139.393 -76.727,141.811ZM-77.748,134.779C-78.314,134.134 -78.806,133.474 -79.222,132.794C-80.811,133.211 -81.604,133.684 -81.604,134.211C-81.152,134.176 -80.489,134.259 -79.621,134.469C-78.751,134.676 -78.125,134.779 -77.748,134.779ZM-74.285,133.021L-74.285,130.525C-75.195,130.376 -75.744,130.297 -75.931,130.297L-75.931,131.148L-74.285,133.021ZM-66.914,131.434C-67.368,131.245 -68.219,130.867 -69.468,130.299L-69.468,135.176C-67.689,134.154 -66.84,132.906 -66.914,131.434ZM-63.798,138.126L-65.044,136.594C-65.799,137.124 -66.565,137.661 -67.342,138.211C-68.117,138.76 -68.787,139.373 -69.353,140.053C-67.654,139.145 -65.799,138.504 -63.798,138.126Z" style="fill:rgb(13,15,15);fill-rule:nonzero;"/>
        </g>
    </g>
</svg>
