<?xml version="1.0" encoding="UTF-8" standalone="no"?>
<!DOCTYPE svg PUBLIC "-//W3C//DTD SVG 1.1//EN" "http://www.w3.org/Graphics/SVG/1.1/DTD/svg11.dtd">
<svg width="100%" height="100%" viewBox="0 0 100 100" version="1.1" xmlns="http://www.w3.org/2000/svg" xmlns:xlink="http://www.w3.org/1999/xlink" xml:space="preserve" xmlns:serif="http://www.serif.com/" style="fill-rule:evenodd;clip-rule:evenodd;stroke-linejoin:round;stroke-miterlimit:2;">
    <g transform="matrix(1,0,0,1,-840,-210.002)">
        <g transform="matrix(1,0,0,1,945,210.002)">
            <path d="M-5,49.998C-5,77.613 -27.385,100 -55.002,100C-82.615,100 -105,77.613 -105,49.998C-105,22.385 -82.615,0 -55.002,0C-27.385,0 -5,22.385 -5,49.998Z" style="fill:rgb(163,192,149);fill-rule:nonzero;"/>
        </g>
        <g transform="matrix(1,0,0,1,945,210.002)">
            <path d="M-11.238,56.225C-11.238,57.893 -11.883,59.389 -13.174,60.723C-14.463,62.055 -15.944,62.721 -17.61,62.721C-20.272,62.721 -22.233,61.471 -23.479,58.973L-29.35,58.723C-30.602,58.723 -33.059,59.266 -36.721,60.348C-40.635,61.43 -42.885,62.305 -43.467,62.971C-44.383,63.969 -45.131,66.303 -45.715,69.967C-46.217,72.965 -46.463,75.172 -46.463,76.588C-46.463,78.834 -46.111,80.481 -45.402,81.522C-44.693,82.563 -43.236,83.438 -41.031,84.145C-38.826,84.852 -37.47,85.249 -36.97,85.332C-36.638,85.332 -36.097,85.291 -35.345,85.207L-33.847,85.207C-32.767,85.207 -31.642,85.377 -30.474,85.707C-28.808,86.207 -28.099,86.873 -28.349,87.707C-29.517,87.541 -31.556,87.791 -34.47,88.457L-30.974,90.205C-30.974,91.205 -32.39,91.703 -35.22,91.703C-35.972,91.703 -36.991,91.537 -38.283,91.205C-39.574,90.869 -40.428,90.705 -40.842,90.705L-42.467,90.705C-42.549,91.537 -42.801,92.785 -43.217,94.451C-44.635,94.367 -46.297,93.533 -48.213,91.953C-50.131,90.373 -51.336,89.58 -51.834,89.58C-52.336,89.58 -53.045,90.373 -53.959,91.953C-54.877,93.533 -55.334,94.617 -55.334,95.201C-56.416,94.617 -57.33,93.533 -58.084,91.953C-58.416,90.869 -58.791,89.787 -59.205,88.705C-60.037,88.789 -61.58,90.539 -63.826,93.953L-64.453,93.953C-64.619,93.701 -65.248,91.953 -66.326,88.705C-68.908,87.873 -71.322,87.457 -73.572,87.457C-74.654,87.457 -76.32,87.707 -78.568,88.205L-82.064,87.957C-81.566,87.457 -80.109,86.5 -77.693,85.084C-74.863,83.418 -72.697,82.584 -71.197,82.584C-70.951,82.584 -70.619,82.627 -70.197,82.709C-69.783,82.795 -69.447,82.834 -69.197,82.834C-68.619,82.834 -67.679,82.522 -66.388,81.896C-65.097,81.273 -64.349,80.71 -64.142,80.212C-63.931,79.708 -63.826,78.419 -63.826,76.337C-63.826,71.591 -65.076,68.052 -67.576,65.72C-69.744,63.638 -73.322,62.14 -78.32,61.222C-79.652,65.968 -83.4,68.345 -89.56,68.345C-91.56,68.345 -93.558,67.138 -95.556,64.722C-97.552,62.306 -98.552,60.099 -98.552,58.101C-98.552,55.019 -97.265,52.48 -94.683,50.478C-96.763,48.316 -97.804,46.109 -97.804,43.861C-97.804,41.777 -97.161,39.947 -95.868,38.361C-94.577,36.783 -92.891,35.865 -90.809,35.613C-90.975,32.951 -90.102,31.117 -88.186,30.117C-89.102,29.203 -89.559,27.58 -89.559,25.248C-89.559,22.5 -88.643,20.209 -86.811,18.377C-84.981,16.545 -82.69,15.627 -79.942,15.627C-76.942,15.627 -74.485,16.672 -72.571,18.752C-70.155,10.508 -64.95,6.385 -56.958,6.385C-52.794,6.385 -49.13,8.051 -45.964,11.383C-44.798,12.631 -44.216,13.299 -44.216,13.379C-45.216,13.379 -44.714,13.191 -42.716,12.818C-40.72,12.443 -39.263,12.255 -38.343,12.255C-35.097,12.255 -32.224,13.462 -29.724,15.878C-27.56,18.044 -26.06,20.79 -25.226,24.122C-24.646,24.206 -23.728,24.454 -22.478,24.87C-20.648,25.79 -19.73,27.368 -19.73,29.618C-19.73,30.036 -20.066,30.827 -20.73,31.991C-15.402,34.989 -12.736,39.153 -12.736,44.483C-12.736,45.981 -13.318,48.067 -14.484,50.73C-12.318,51.977 -11.238,53.811 -11.238,56.225ZM-62.705,61.721L-62.705,60.098C-62.705,58.184 -63.641,56.434 -65.514,54.852C-67.389,53.27 -69.284,52.479 -71.198,52.479C-73.532,52.479 -75.694,53.02 -77.694,54.1C-73.281,53.852 -68.283,56.393 -62.705,61.721ZM-64.951,46.232C-66.201,44.814 -67.283,43.357 -68.201,41.859C-71.699,42.775 -73.447,43.816 -73.447,44.98C-72.447,44.9 -70.99,45.085 -69.076,45.544C-67.162,46.003 -65.785,46.232 -64.951,46.232ZM-57.33,42.359L-57.33,36.863C-59.33,36.531 -60.541,36.363 -60.953,36.363L-60.953,38.236L-57.33,42.359ZM-41.092,38.861C-42.092,38.445 -43.967,37.611 -46.713,36.363L-46.713,47.105C-42.801,44.855 -40.928,42.107 -41.092,38.861ZM-34.225,53.602L-36.971,50.229C-38.635,51.396 -40.323,52.583 -42.032,53.79C-43.741,54.997 -45.218,56.353 -46.464,57.85C-42.717,55.848 -38.635,54.436 -34.225,53.602Z" style="fill:rgb(13,15,15);fill-rule:nonzero;"/>
        </g>
    </g>
</svg>
