<?xml version="1.0" encoding="UTF-8" standalone="no"?>
<!DOCTYPE svg PUBLIC "-//W3C//DTD SVG 1.1//EN" "http://www.w3.org/Graphics/SVG/1.1/DTD/svg11.dtd">
<svg width="100%" height="100%" viewBox="0 0 100 100" version="1.1" xmlns="http://www.w3.org/2000/svg" xmlns:xlink="http://www.w3.org/1999/xlink" xml:space="preserve" xmlns:serif="http://www.serif.com/" style="fill-rule:evenodd;clip-rule:evenodd;stroke-linejoin:round;stroke-miterlimit:2;">
    <g transform="matrix(1,0,0,1,-945,-315.002)">
        <g transform="matrix(1,0,0,1,945,210.002)">
            <path d="M85.35,119.637C94.403,128.688 100,141.188 100,154.997C100,182.613 77.613,205 50,205C36.193,205 23.695,199.404 14.646,190.354" style="fill:rgb(193,215,233);fill-rule:nonzero;"/>
            <path d="M14.646,190.354C5.596,181.307 0,168.805 0,154.997C0,127.384 22.387,105 50,105C63.803,105 76.301,110.593 85.35,119.637" style="fill:rgb(163,192,149);fill-rule:nonzero;"/>
        </g>
        <g transform="matrix(1,0,0,1,945,210.002)">
            <path d="M76.723,188.675C74.03,191.414 70.715,192.784 66.778,192.784C62.354,192.784 58.848,191.269 56.254,188.243C53.802,185.359 52.576,181.685 52.576,177.215C52.576,172.411 54.667,166.934 58.848,160.781C62.258,155.734 66.272,151.314 70.884,147.517C70.209,150.593 69.875,152.779 69.875,154.078C69.875,157.058 70.811,159.964 72.686,162.799C74.993,166.164 76.748,168.663 77.948,170.295C79.821,173.13 80.761,175.895 80.761,178.584C80.759,182.574 79.412,185.938 76.723,188.675ZM76.648,173.287C75.929,171.678 75.087,170.607 74.127,170.079C74.273,170.367 74.344,170.777 74.344,171.305C74.344,172.315 74.057,173.758 73.479,175.629L72.541,178.514C72.541,180.194 73.381,181.036 75.062,181.036C76.839,181.036 77.73,179.859 77.73,177.504C77.73,176.303 77.37,174.896 76.648,173.287Z" style="fill:rgb(13,15,15);fill-rule:nonzero;"/>
        </g>
        <g transform="matrix(1,0,0,1,945,210.002)">
            <path d="M51.641,139.285C51.641,140.042 51.348,140.723 50.762,141.328C50.175,141.932 49.503,142.232 48.745,142.232C47.538,142.232 46.647,141.667 46.082,140.532L43.416,140.42C42.848,140.42 41.731,140.665 40.07,141.156C38.293,141.646 37.272,142.044 37.006,142.347C36.592,142.8 36.251,143.861 35.986,145.523C35.758,146.884 35.647,147.886 35.647,148.531C35.647,149.549 35.807,150.298 36.127,150.771C36.448,151.243 37.111,151.638 38.111,151.959C39.112,152.278 39.727,152.461 39.955,152.497C40.106,152.497 40.351,152.479 40.692,152.44L41.373,152.44C41.864,152.44 42.374,152.518 42.905,152.668C43.66,152.894 43.982,153.196 43.87,153.574C43.339,153.501 42.414,153.612 41.092,153.915L42.678,154.71C42.678,155.164 42.035,155.39 40.75,155.39C40.408,155.39 39.945,155.316 39.36,155.164C38.773,155.011 38.385,154.935 38.197,154.935L37.461,154.935C37.422,155.314 37.31,155.879 37.12,156.638C36.475,156.599 35.721,156.22 34.85,155.503C33.98,154.784 33.432,154.425 33.207,154.425C32.979,154.425 32.656,154.784 32.242,155.503C31.825,156.22 31.618,156.711 31.618,156.978C31.127,156.711 30.713,156.22 30.369,155.503C30.218,155.009 30.048,154.519 29.86,154.026C29.481,154.063 28.783,154.86 27.761,156.41L27.477,156.41C27.401,156.296 27.117,155.503 26.625,154.026C25.453,153.649 24.357,153.461 23.337,153.461C22.846,153.461 22.088,153.573 21.067,153.802L19.481,153.691C19.706,153.462 20.369,153.027 21.464,152.384C22.748,151.626 23.733,151.248 24.413,151.248C24.525,151.248 24.677,151.269 24.867,151.306C25.055,151.347 25.208,151.365 25.321,151.365C25.584,151.365 26.01,151.222 26.596,150.937C27.182,150.654 27.523,150.4 27.615,150.172C27.713,149.943 27.761,149.359 27.761,148.413C27.761,146.259 27.193,144.651 26.058,143.592C25.075,142.65 23.45,141.968 21.181,141.55C20.577,143.704 18.874,144.784 16.078,144.784C15.169,144.784 14.263,144.237 13.355,143.139C12.45,142.039 11.994,141.039 11.994,140.131C11.994,138.731 12.58,137.58 13.752,136.671C12.808,135.69 12.334,134.688 12.334,133.666C12.334,132.721 12.626,131.889 13.213,131.17C13.799,130.454 14.566,130.036 15.51,129.921C15.436,128.714 15.831,127.879 16.701,127.427C16.285,127.012 16.078,126.276 16.078,125.216C16.078,123.969 16.492,122.93 17.325,122.098C18.155,121.266 19.197,120.848 20.442,120.848C21.805,120.848 22.921,121.323 23.79,122.266C24.888,118.524 27.249,116.653 30.879,116.653C32.769,116.653 34.433,117.41 35.869,118.924C36.399,119.487 36.662,119.792 36.662,119.829C36.21,119.829 36.437,119.743 37.343,119.573C38.252,119.403 38.911,119.317 39.329,119.317C40.803,119.317 42.107,119.867 43.244,120.963C44.226,121.947 44.907,123.192 45.286,124.705C45.549,124.743 45.965,124.855 46.532,125.045C47.363,125.463 47.78,126.18 47.78,127.201C47.78,127.39 47.628,127.75 47.326,128.279C49.745,129.64 50.956,131.529 50.956,133.949C50.956,134.63 50.69,135.577 50.163,136.786C51.148,137.355 51.641,138.188 51.641,139.285ZM28.273,141.781L28.273,141.044C28.273,140.174 27.848,139.38 26.997,138.662C26.146,137.941 25.287,137.585 24.417,137.585C23.357,137.585 22.375,137.83 21.468,138.32C23.472,138.209 25.74,139.359 28.273,141.781ZM27.252,134.75C26.686,134.104 26.194,133.443 25.778,132.764C24.189,133.18 23.396,133.653 23.396,134.18C23.848,134.143 24.511,134.229 25.379,134.436C26.249,134.646 26.875,134.75 27.252,134.75ZM30.715,132.99L30.715,130.494C29.805,130.344 29.256,130.267 29.069,130.267L29.069,131.118L30.715,132.99ZM38.086,131.402C37.632,131.213 36.781,130.835 35.532,130.267L35.532,135.144C37.311,134.122 38.16,132.876 38.086,131.402ZM41.202,138.094L39.956,136.565C39.201,137.094 38.435,137.632 37.658,138.18C36.883,138.727 36.213,139.343 35.647,140.024C37.346,139.113 39.201,138.473 41.202,138.094Z" style="fill:rgb(13,15,15);fill-rule:nonzero;"/>
        </g>
    </g>
</svg>
