<?xml version="1.0" encoding="UTF-8" standalone="no"?>
<!DOCTYPE svg PUBLIC "-//W3C//DTD SVG 1.1//EN" "http://www.w3.org/Graphics/SVG/1.1/DTD/svg11.dtd">
<svg width="100%" height="100%" viewBox="0 0 100 100" version="1.1" xmlns="http://www.w3.org/2000/svg" xmlns:xlink="http://www.w3.org/1999/xlink" xml:space="preserve" xmlns:serif="http://www.serif.com/" style="fill-rule:evenodd;clip-rule:evenodd;stroke-linejoin:round;stroke-miterlimit:2;">
    <g transform="matrix(1,0,0,1,-735,-315.003)">
        <g transform="matrix(1,0,0,1,945,210.002)">
            <path d="M-124.651,119.637C-115.598,128.688 -110,141.188 -110,154.997C-110,182.613 -132.387,205 -160,205C-173.807,205 -186.305,199.404 -195.354,190.354" style="fill:rgb(163,192,149);fill-rule:nonzero;"/>
            <path d="M-195.354,190.354C-204.404,181.307 -210,168.805 -210,154.998C-210,127.385 -187.613,105.001 -160,105.001C-146.198,105.001 -133.699,110.595 -124.651,119.638" style="fill:rgb(228,153,119);fill-rule:nonzero;"/>
        </g>
        <g transform="matrix(1,0,0,1,945,210.002)">
            <path d="M-158.063,143.077C-159.781,147.176 -163.193,149.223 -168.303,149.223C-169.24,149.223 -170.255,149.338 -171.347,149.573C-172.986,149.926 -173.804,150.414 -173.804,151.038C-173.804,151.233 -173.668,151.456 -173.395,151.712C-173.123,151.965 -172.887,152.092 -172.692,152.092C-173.669,152.092 -173.005,152.122 -170.705,152.178C-168.403,152.238 -166.959,152.267 -166.373,152.267C-169.768,154.255 -175.443,155.173 -183.402,155.017C-186.016,154.98 -188.259,153.829 -190.131,151.566C-191.965,149.42 -192.881,147.021 -192.881,144.37C-192.881,141.56 -191.936,139.171 -190.042,137.199C-188.152,135.232 -185.8,134.246 -182.991,134.246C-182.368,134.246 -181.538,134.383 -180.505,134.654C-179.471,134.927 -178.778,135.064 -178.428,135.064C-176.984,135.064 -175.19,134.467 -173.044,133.279C-170.898,132.089 -169.883,131.494 -170,131.494C-170.391,135.59 -171.756,138.342 -174.097,139.745C-175.776,140.723 -176.613,141.678 -176.613,142.611C-176.613,143.197 -176.264,143.666 -175.561,144.017C-175.015,144.288 -174.41,144.425 -173.746,144.425C-172.732,144.425 -171.738,143.802 -170.762,142.554C-169.788,141.306 -169.359,140.174 -169.476,139.158C-169.591,137.987 -169.513,136.582 -169.241,134.946C-169.164,134.475 -168.88,133.901 -168.393,133.219C-167.905,132.535 -167.465,132.115 -167.076,131.958C-167.076,132.311 -167.204,132.896 -167.457,133.713C-167.711,134.532 -167.837,135.141 -167.837,135.527C-167.837,136.386 -167.604,137.049 -167.135,137.517C-166.433,137.246 -165.81,136.367 -165.263,134.883C-164.795,133.752 -164.523,132.659 -164.443,131.607C-166.083,131.532 -167.654,130.789 -169.155,129.382C-170.657,127.978 -171.407,126.456 -171.407,124.819C-171.407,124.547 -171.37,124.272 -171.29,124C-171.058,124.353 -170.707,124.899 -170.236,125.64C-169.575,126.613 -169.066,127.101 -168.715,127.101C-168.247,127.101 -168.014,126.613 -168.014,125.64C-168.014,124.392 -168.345,123.261 -169.008,122.245C-169.75,121.034 -170.706,120.431 -171.875,120.431C-172.423,120.431 -173.241,120.724 -174.333,121.31C-175.426,121.894 -176.421,122.187 -177.315,122.187C-177.589,122.187 -178.799,121.833 -180.945,121.132C-177.162,120.508 -175.269,119.943 -175.269,119.435C-175.269,118.109 -177.863,117.211 -183.052,116.745C-183.559,116.707 -184.494,116.629 -185.86,116.51C-185.705,116.317 -184.592,116.102 -182.524,115.866C-180.769,115.674 -179.541,115.572 -178.839,115.572C-169.554,115.572 -163.664,120.08 -161.166,129.093C-160.735,128.736 -160.52,128.144 -160.52,127.314C-160.52,126.245 -160.833,124.9 -161.457,123.279C-161.692,122.646 -162.064,121.695 -162.57,120.431C-159.373,124.506 -157.77,128.369 -157.77,132.015C-157.77,133.935 -158.221,135.681 -159.118,137.245C-159.701,138.306 -160.796,139.657 -162.394,141.304C-163.993,142.95 -165.085,144.224 -165.671,145.126C-163.525,144.54 -162.119,144.09 -161.456,143.778C-159.976,143.115 -158.629,142.119 -157.42,140.794C-157.421,141.305 -157.636,142.064 -158.063,143.077ZM-183.578,120.08C-183.578,120.782 -183.969,121.23 -184.748,121.428L-186.269,121.661C-186.817,121.932 -187.616,123.007 -188.667,124.879C-188.785,124.295 -188.96,123.475 -189.195,122.421C-189.546,122.46 -190.131,122.774 -190.95,123.358C-191.301,123.63 -191.867,124.042 -192.648,124.587C-192.413,123.183 -191.631,121.761 -190.306,120.316C-188.902,118.717 -187.535,117.92 -186.21,117.92C-184.455,117.917 -183.578,118.639 -183.578,120.08ZM-173.396,125.465C-173.396,126.126 -173.756,126.686 -174.479,127.133C-175.201,127.581 -175.913,127.807 -176.614,127.807C-177.552,127.807 -178.391,127.282 -179.131,126.225C-180.029,124.94 -180.945,124.1 -181.882,123.709C-181.689,123.514 -181.453,123.416 -181.178,123.416C-180.828,123.416 -180.234,123.687 -179.395,124.234C-178.558,124.783 -178.021,125.054 -177.786,125.054C-177.591,125.054 -177.269,124.783 -176.821,124.234C-176.373,123.687 -175.876,123.416 -175.328,123.416C-174.039,123.416 -173.396,124.1 -173.396,125.465Z" style="fill:rgb(13,15,15);fill-rule:nonzero;"/>
        </g>
        <g transform="matrix(1,0,0,1,945,210.002)">
            <path d="M-120.481,172.618C-120.481,173.376 -120.774,174.055 -121.36,174.661C-121.946,175.265 -122.618,175.566 -123.376,175.566C-124.583,175.566 -125.474,175 -126.039,173.865L-128.706,173.753C-129.273,173.753 -130.39,173.999 -132.051,174.49C-133.828,174.98 -134.849,175.378 -135.114,175.679C-135.528,176.133 -135.869,177.193 -136.135,178.857C-136.363,180.217 -136.474,181.22 -136.474,181.863C-136.474,182.883 -136.314,183.631 -135.994,184.103C-135.673,184.576 -135.01,184.972 -134.01,185.292C-133.01,185.61 -132.394,185.794 -132.166,185.831C-132.015,185.831 -131.77,185.813 -131.429,185.774L-130.748,185.774C-130.257,185.774 -129.747,185.85 -129.216,186.001C-128.461,186.228 -128.139,186.528 -128.251,186.908C-128.782,186.834 -129.707,186.946 -131.029,187.248L-129.443,188.043C-129.443,188.497 -130.086,188.722 -131.371,188.722C-131.713,188.722 -132.177,188.65 -132.761,188.497C-133.349,188.343 -133.737,188.268 -133.924,188.268L-134.661,188.268C-134.699,188.647 -134.811,189.211 -135.001,189.969C-135.647,189.932 -136.4,189.553 -137.271,188.836C-138.141,188.116 -138.689,187.757 -138.914,187.757C-139.142,187.757 -139.465,188.116 -139.879,188.836C-140.296,189.553 -140.503,190.043 -140.503,190.311C-140.994,190.043 -141.409,189.553 -141.752,188.836C-141.903,188.342 -142.073,187.85 -142.261,187.357C-142.64,187.396 -143.338,188.193 -144.36,189.742L-144.644,189.742C-144.721,189.629 -145.004,188.836 -145.496,187.357C-146.668,186.982 -147.764,186.794 -148.784,186.794C-149.275,186.794 -150.033,186.906 -151.054,187.135L-152.641,187.022C-152.415,186.794 -151.753,186.36 -150.657,185.717C-149.373,184.959 -148.388,184.58 -147.708,184.58C-147.596,184.58 -147.444,184.601 -147.254,184.639C-147.066,184.678 -146.913,184.697 -146.8,184.697C-146.538,184.697 -146.111,184.555 -145.525,184.27C-144.939,183.987 -144.598,183.731 -144.506,183.504C-144.408,183.275 -144.361,182.691 -144.361,181.745C-144.361,179.592 -144.929,177.982 -146.064,176.926C-147.047,175.981 -148.672,175.301 -150.941,174.883C-151.545,177.037 -153.248,178.117 -156.044,178.117C-156.953,178.117 -157.86,177.568 -158.767,176.471C-159.674,175.374 -160.128,174.372 -160.128,173.464C-160.128,172.065 -159.542,170.913 -158.37,170.005C-159.314,169.024 -159.788,168.022 -159.788,166.999C-159.788,166.055 -159.496,165.223 -158.909,164.503C-158.323,163.787 -157.556,163.37 -156.612,163.255C-156.686,162.047 -156.291,161.213 -155.422,160.76C-155.837,160.346 -156.044,159.61 -156.044,158.549C-156.044,157.303 -155.63,156.262 -154.797,155.43C-153.967,154.6 -152.926,154.182 -151.68,154.182C-150.317,154.182 -149.201,154.657 -148.332,155.6C-147.234,151.858 -144.873,149.987 -141.243,149.987C-139.354,149.987 -137.689,150.743 -136.253,152.257C-135.723,152.822 -135.46,153.125 -135.46,153.162C-135.912,153.162 -135.685,153.076 -134.779,152.908C-133.87,152.737 -133.211,152.651 -132.793,152.651C-131.319,152.651 -130.015,153.201 -128.878,154.297C-127.896,155.281 -127.215,156.526 -126.836,158.039C-126.573,158.078 -126.157,158.19 -125.591,158.38C-124.759,158.797 -124.342,159.515 -124.342,160.535C-124.342,160.723 -124.494,161.084 -124.796,161.614C-122.377,162.975 -121.166,164.865 -121.166,167.284C-121.166,167.965 -121.432,168.911 -121.959,170.12C-120.973,170.689 -120.481,171.521 -120.481,172.618ZM-143.849,175.113L-143.849,174.377C-143.849,173.508 -144.273,172.713 -145.124,171.995C-145.975,171.275 -146.834,170.918 -147.704,170.918C-148.764,170.918 -149.746,171.164 -150.653,171.652C-148.649,171.542 -146.382,172.693 -143.849,175.113ZM-144.869,168.083C-145.435,167.437 -145.927,166.777 -146.343,166.098C-147.932,166.512 -148.726,166.987 -148.726,167.514C-148.273,167.477 -147.61,167.561 -146.742,167.77C-145.872,167.979 -145.246,168.083 -144.869,168.083ZM-141.407,166.322L-141.407,163.827C-142.316,163.678 -142.866,163.601 -143.053,163.601L-143.053,164.452L-141.407,166.322ZM-134.035,164.736C-134.489,164.547 -135.34,164.168 -136.589,163.601L-136.589,168.478C-134.811,167.456 -133.961,166.21 -134.035,164.736ZM-130.919,171.428L-132.165,169.899C-132.92,170.428 -133.686,170.965 -134.463,171.514C-135.238,172.061 -135.908,172.676 -136.474,173.358C-134.775,172.447 -132.92,171.807 -130.919,171.428Z" style="fill:rgb(13,15,15);fill-rule:nonzero;"/>
        </g>
    </g>
</svg>
