<?xml version="1.0" encoding="UTF-8" standalone="no"?>
<!DOCTYPE svg PUBLIC "-//W3C//DTD SVG 1.1//EN" "http://www.w3.org/Graphics/SVG/1.1/DTD/svg11.dtd">
<svg width="100%" height="100%" viewBox="0 0 100 100" version="1.1" xmlns="http://www.w3.org/2000/svg" xmlns:xlink="http://www.w3.org/1999/xlink" xml:space="preserve" xmlns:serif="http://www.serif.com/" style="fill-rule:evenodd;clip-rule:evenodd;stroke-linejoin:round;stroke-miterlimit:2;">
    <g transform="matrix(1,0,0,1,-630,-315.003)">
        <g transform="matrix(1,0,0,1,945,210.002)">
            <path d="M-229.651,119.637C-220.598,128.688 -215,141.188 -215,154.997C-215,182.613 -237.387,205 -265,205C-278.807,205 -291.305,199.404 -300.354,190.354" style="fill:rgb(248,246,216);fill-rule:nonzero;"/>
            <path d="M-300.354,190.354C-309.404,181.307 -315,168.805 -315,154.998C-315,127.385 -292.613,105.001 -265,105.001C-251.198,105.001 -238.699,110.595 -229.651,119.638" style="fill:rgb(228,153,119);fill-rule:nonzero;"/>
        </g>
        <g transform="matrix(1,0,0,1,945,210.002)">
            <path d="M-227,178.111C-229.436,175.847 -231.054,174.62 -231.848,174.429C-232.424,174.291 -232.983,174.627 -233.52,175.435C-234.057,176.243 -234.811,176.527 -235.788,176.293C-236.184,176.198 -236.963,175.858 -238.122,175.276C-239.06,176.161 -239.563,176.747 -239.633,177.034C-239.728,177.432 -239.544,177.972 -239.082,178.655C-238.622,179.34 -238.188,179.727 -237.781,179.826C-237.524,179.888 -237.16,179.917 -236.691,179.915C-236.223,179.914 -235.914,179.931 -235.764,179.966C-235.321,180.07 -235.295,180.937 -235.686,182.564C-236.056,184.116 -236.988,186.416 -238.479,189.456C-238.538,185.547 -239.089,183.467 -240.135,183.217C-240.28,183.182 -240.604,183.221 -241.107,183.328C-241.612,183.435 -241.971,183.465 -242.187,183.413C-243.235,183.162 -243.945,181.98 -244.318,179.867C-246.041,179.722 -247.075,180.373 -247.421,181.816C-247.595,182.542 -247.398,183.199 -246.832,183.792C-246.269,184.384 -246.009,184.771 -246.05,184.952C-246.283,185.93 -248.071,187.085 -251.405,188.425C-253.181,189.147 -254.412,189.653 -255.093,189.947C-254.434,189.419 -253.724,188.691 -252.966,187.765C-252.104,186.708 -251.595,185.859 -251.438,185.206C-251.352,184.847 -251.647,184.24 -252.322,183.392C-252.998,182.543 -253.248,181.758 -253.075,181.037C-252.929,180.423 -252.532,179.718 -251.881,178.917C-252.222,178.264 -252.716,177.857 -253.366,177.702C-254.81,177.355 -255.645,177.652 -255.87,178.593C-255.715,177.942 -255.832,178.43 -256.22,180.055C-256.47,181.255 -257.516,181.635 -259.358,181.196C-260.767,180.858 -263.054,179.967 -266.222,178.522C-262.241,178.483 -260.104,177.848 -259.811,176.621C-259.843,176.767 -259.814,176.313 -259.714,175.268C-259.592,174.114 -258.554,173.291 -256.606,172.803C-256.534,171.065 -257.2,170.026 -258.61,169.69C-258.826,169.637 -259.315,169.921 -260.073,170.543C-260.834,171.162 -261.466,171.413 -261.971,171.291C-262.838,171.086 -263.734,169.878 -264.655,167.671C-265.082,166.576 -265.743,164.948 -266.638,162.786C-265.911,163.418 -265.185,164.052 -264.456,164.682C-263.493,165.448 -262.686,165.908 -262.037,166.065C-261.531,166.184 -260.929,165.86 -260.229,165.091C-259.53,164.323 -258.783,164.033 -257.989,164.225C-257.878,164.251 -257.209,164.639 -255.976,165.393C-255.039,164.51 -254.51,163.817 -254.388,163.311C-254.286,162.876 -254.428,162.317 -254.819,161.632C-255.209,160.945 -255.621,160.553 -256.054,160.448C-256.235,160.404 -256.527,160.39 -256.932,160.409C-257.337,160.428 -257.63,160.414 -257.811,160.371C-258.46,160.216 -258.592,159.326 -258.203,157.7C-258.101,157.265 -257.093,154.89 -255.181,150.577C-255.347,151.107 -255.354,152.178 -255.202,153.779C-255.021,155.732 -254.515,156.806 -253.684,157.007C-253.54,157.04 -253.225,157.002 -252.738,156.889C-252.253,156.776 -251.886,156.749 -251.634,156.811C-250.804,157.008 -250.23,157.643 -249.911,158.711L-249.448,160.366C-248.69,160.549 -247.993,160.429 -247.358,160.009C-246.722,159.588 -246.312,158.998 -246.131,158.24C-245.942,157.445 -246.131,156.761 -246.699,156.185C-247.268,155.609 -247.528,155.213 -247.474,154.997C-247.293,154.239 -245.794,153.242 -242.979,152.007C-240.719,151.022 -239.27,150.471 -238.63,150.356C-240.684,152.081 -241.829,153.426 -242.062,154.403C-242.183,154.91 -242.007,155.524 -241.531,156.251C-240.936,157.118 -240.619,157.71 -240.581,158.022C-240.42,158.942 -240.727,160.069 -241.506,161.412C-240.695,162.332 -240.036,162.85 -239.529,162.974C-238.484,163.224 -237.83,162.806 -237.571,161.724C-237.545,161.615 -237.508,161.261 -237.459,160.661C-237.413,160.061 -237.361,159.729 -237.308,159.666C-237.042,159.194 -235.989,159.179 -234.147,159.621C-232.991,159.897 -230.668,160.796 -227.174,162.319C-228.021,162.346 -229.29,162.385 -230.983,162.44C-232.533,162.526 -233.372,162.841 -233.502,163.382C-233.562,163.635 -233.576,164.09 -233.542,164.746C-233.508,165.402 -233.525,165.878 -233.595,166.167C-233.715,166.673 -234.154,167.063 -234.907,167.342L-237.062,168.201C-236.817,169.099 -236.642,169.639 -236.531,169.816C-236.272,170.337 -235.839,170.67 -235.225,170.818C-234.791,170.922 -234.303,170.638 -233.76,169.964C-233.218,169.292 -232.548,169.051 -231.753,169.242C-230.778,169.474 -229.892,170.64 -229.096,172.741C-228.651,173.917 -227.953,175.708 -227,178.111ZM-238.274,172.092C-237.722,169.779 -238.09,167.572 -239.382,165.469C-240.674,163.366 -242.476,162.036 -244.786,161.483C-247.134,160.922 -249.359,161.278 -251.457,162.553C-253.556,163.823 -254.905,165.63 -255.503,167.969C-256.093,170.272 -255.713,172.473 -254.362,174.573C-253.012,176.671 -251.182,177.998 -248.869,178.551C-246.415,179.138 -244.172,178.825 -242.144,177.611C-240.118,176.396 -238.828,174.555 -238.274,172.092ZM-239.089,171.896C-239.615,174.099 -240.792,175.747 -242.619,176.835C-244.445,177.925 -246.462,178.208 -248.663,177.681C-250.794,177.171 -252.44,175.994 -253.603,174.15C-254.766,172.306 -255.092,170.32 -254.582,168.189C-254.079,166.093 -252.884,164.48 -250.99,163.347C-249.094,162.217 -247.101,161.902 -245.006,162.404C-242.912,162.904 -241.279,164.097 -240.108,165.98C-238.937,167.867 -238.596,169.838 -239.089,171.896Z" style="fill:rgb(13,15,15);fill-rule:nonzero;"/>
        </g>
        <g transform="matrix(1,0,0,1,945,210.002)">
            <path d="M-263.063,143.077C-264.781,147.176 -268.193,149.223 -273.303,149.223C-274.24,149.223 -275.255,149.338 -276.347,149.573C-277.986,149.926 -278.804,150.414 -278.804,151.038C-278.804,151.233 -278.668,151.456 -278.395,151.712C-278.123,151.965 -277.887,152.092 -277.692,152.092C-278.669,152.092 -278.005,152.122 -275.705,152.178C-273.403,152.238 -271.959,152.267 -271.373,152.267C-274.768,154.255 -280.443,155.173 -288.402,155.017C-291.016,154.98 -293.259,153.829 -295.131,151.566C-296.965,149.42 -297.881,147.021 -297.881,144.37C-297.881,141.56 -296.936,139.171 -295.042,137.199C-293.152,135.232 -290.8,134.246 -287.991,134.246C-287.368,134.246 -286.538,134.383 -285.505,134.654C-284.471,134.927 -283.778,135.064 -283.428,135.064C-281.984,135.064 -280.19,134.467 -278.044,133.279C-275.898,132.089 -274.883,131.494 -275,131.494C-275.391,135.59 -276.756,138.342 -279.097,139.745C-280.776,140.723 -281.613,141.678 -281.613,142.611C-281.613,143.197 -281.264,143.666 -280.561,144.017C-280.015,144.288 -279.41,144.425 -278.746,144.425C-277.732,144.425 -276.738,143.802 -275.762,142.554C-274.788,141.306 -274.359,140.174 -274.476,139.158C-274.591,137.987 -274.513,136.582 -274.241,134.946C-274.164,134.475 -273.88,133.901 -273.393,133.219C-272.905,132.535 -272.465,132.115 -272.076,131.958C-272.076,132.311 -272.204,132.896 -272.457,133.713C-272.711,134.532 -272.837,135.141 -272.837,135.527C-272.837,136.386 -272.604,137.049 -272.135,137.517C-271.433,137.246 -270.81,136.367 -270.263,134.883C-269.795,133.752 -269.523,132.659 -269.443,131.607C-271.083,131.532 -272.654,130.789 -274.155,129.382C-275.657,127.978 -276.407,126.456 -276.407,124.819C-276.407,124.547 -276.37,124.272 -276.29,124C-276.058,124.353 -275.707,124.899 -275.236,125.64C-274.575,126.613 -274.066,127.101 -273.715,127.101C-273.247,127.101 -273.014,126.613 -273.014,125.64C-273.014,124.392 -273.345,123.261 -274.008,122.245C-274.75,121.034 -275.706,120.431 -276.875,120.431C-277.423,120.431 -278.241,120.724 -279.333,121.31C-280.426,121.894 -281.421,122.187 -282.315,122.187C-282.589,122.187 -283.799,121.833 -285.945,121.132C-282.162,120.508 -280.269,119.943 -280.269,119.435C-280.269,118.109 -282.863,117.211 -288.052,116.745C-288.559,116.707 -289.494,116.629 -290.86,116.51C-290.705,116.317 -289.592,116.102 -287.524,115.866C-285.769,115.674 -284.541,115.572 -283.839,115.572C-274.554,115.572 -268.664,120.08 -266.166,129.093C-265.735,128.736 -265.52,128.144 -265.52,127.314C-265.52,126.245 -265.833,124.9 -266.457,123.279C-266.692,122.646 -267.064,121.695 -267.57,120.431C-264.373,124.506 -262.77,128.369 -262.77,132.015C-262.77,133.935 -263.221,135.681 -264.118,137.245C-264.701,138.306 -265.796,139.657 -267.394,141.304C-268.993,142.95 -270.085,144.224 -270.671,145.126C-268.525,144.54 -267.119,144.09 -266.456,143.778C-264.976,143.115 -263.629,142.119 -262.42,140.794C-262.421,141.305 -262.636,142.064 -263.063,143.077ZM-288.578,120.08C-288.578,120.782 -288.969,121.23 -289.748,121.428L-291.269,121.661C-291.817,121.932 -292.616,123.007 -293.667,124.879C-293.785,124.295 -293.96,123.475 -294.195,122.421C-294.546,122.46 -295.131,122.774 -295.95,123.358C-296.301,123.63 -296.867,124.042 -297.648,124.587C-297.413,123.183 -296.631,121.761 -295.306,120.316C-293.902,118.717 -292.535,117.92 -291.21,117.92C-289.455,117.917 -288.578,118.639 -288.578,120.08ZM-278.396,125.465C-278.396,126.126 -278.756,126.686 -279.479,127.133C-280.201,127.581 -280.913,127.807 -281.614,127.807C-282.552,127.807 -283.391,127.282 -284.131,126.225C-285.029,124.94 -285.945,124.1 -286.882,123.709C-286.689,123.514 -286.453,123.416 -286.178,123.416C-285.828,123.416 -285.234,123.687 -284.395,124.234C-283.558,124.783 -283.021,125.054 -282.786,125.054C-282.591,125.054 -282.269,124.783 -281.821,124.234C-281.373,123.687 -280.876,123.416 -280.328,123.416C-279.039,123.416 -278.396,124.1 -278.396,125.465Z" style="fill:rgb(13,15,15);fill-rule:nonzero;"/>
        </g>
    </g>
</svg>
