<?xml version="1.0" encoding="UTF-8" standalone="no"?>
<!DOCTYPE svg PUBLIC "-//W3C//DTD SVG 1.1//EN" "http://www.w3.org/Graphics/SVG/1.1/DTD/svg11.dtd">
<svg width="100%" height="100%" viewBox="0 0 100 100" version="1.1" xmlns="http://www.w3.org/2000/svg" xmlns:xlink="http://www.w3.org/1999/xlink" xml:space="preserve" xmlns:serif="http://www.serif.com/" style="fill-rule:evenodd;clip-rule:evenodd;stroke-linejoin:round;stroke-miterlimit:2;">
    <g transform="matrix(1,0,0,1,-735,-210.002)">
        <g transform="matrix(1,0,0,1,945,210.002)">
            <circle cx="-160" cy="50" r="50" style="fill:rgb(228,153,119);"/>
        </g>
        <g transform="matrix(1,0,0,1,945,210.002)">
            <path d="M-118.035,66.617C-121.771,75.529 -129.195,79.984 -140.31,79.984C-142.347,79.984 -144.556,80.238 -146.931,80.746C-150.495,81.51 -152.277,82.574 -152.277,83.932C-152.277,84.356 -151.982,84.842 -151.386,85.395C-150.794,85.948 -150.282,86.221 -149.859,86.221C-151.982,86.221 -150.539,86.285 -145.533,86.412C-140.525,86.539 -137.385,86.603 -136.111,86.603C-143.494,90.929 -155.843,92.922 -173.154,92.584C-178.842,92.5 -183.72,89.996 -187.793,85.074C-191.785,80.405 -193.777,75.186 -193.777,69.416C-193.777,63.308 -191.72,58.108 -187.601,53.821C-183.488,49.539 -178.372,47.394 -172.263,47.394C-170.906,47.394 -169.103,47.691 -166.853,48.285C-164.605,48.879 -163.097,49.176 -162.335,49.176C-159.196,49.176 -155.29,47.883 -150.622,45.293C-145.956,42.705 -143.747,41.41 -144.001,41.41C-144.851,50.322 -147.821,56.306 -152.915,59.358C-156.563,61.481 -158.388,63.559 -158.388,65.594C-158.388,66.867 -157.624,67.887 -156.097,68.651C-154.909,69.246 -153.595,69.543 -152.152,69.543C-149.945,69.543 -147.781,68.187 -145.658,65.472C-143.539,62.754 -142.603,60.295 -142.857,58.086C-143.111,55.541 -142.941,52.483 -142.347,48.922C-142.179,47.902 -141.564,46.652 -140.503,45.168C-139.442,43.682 -138.487,42.77 -137.638,42.43C-137.638,43.192 -137.913,44.467 -138.466,46.248C-139.019,48.029 -139.292,49.348 -139.292,50.195C-139.292,52.062 -138.784,53.504 -137.765,54.521C-136.24,53.929 -134.882,52.019 -133.691,48.792C-132.675,46.333 -132.082,43.956 -131.91,41.665C-135.476,41.495 -138.892,39.884 -142.158,36.827C-145.426,33.77 -147.058,30.462 -147.058,26.899C-147.058,26.305 -146.976,25.711 -146.802,25.116C-146.294,25.88 -145.531,27.069 -144.513,28.68C-143.07,30.801 -141.966,31.862 -141.2,31.862C-140.184,31.862 -139.675,30.801 -139.675,28.68C-139.675,25.965 -140.398,23.504 -141.839,21.297C-143.452,18.666 -145.532,17.35 -148.077,17.35C-149.266,17.35 -151.048,17.987 -153.421,19.26C-155.8,20.531 -157.964,21.17 -159.913,21.17C-160.509,21.17 -163.142,20.404 -167.808,18.877C-159.578,17.522 -155.46,16.291 -155.46,15.186C-155.46,12.301 -161.105,10.348 -172.39,9.331C-173.495,9.247 -175.531,9.077 -178.501,8.821C-178.163,8.397 -175.743,7.93 -171.243,7.421C-167.425,6.999 -164.751,6.784 -163.225,6.784C-143.028,6.784 -130.213,16.589 -124.782,36.192C-123.848,35.419 -123.38,34.126 -123.38,32.321C-123.38,29.997 -124.06,27.071 -125.417,23.544C-125.929,22.169 -126.735,20.103 -127.837,17.351C-120.88,26.218 -117.398,34.621 -117.398,42.55C-117.398,46.728 -118.377,50.523 -120.328,53.931C-121.598,56.234 -123.978,59.175 -127.455,62.757C-130.935,66.337 -133.312,69.109 -134.586,71.07C-129.918,69.799 -126.861,68.822 -125.418,68.142C-122.195,66.702 -119.268,64.536 -116.635,61.65C-116.635,62.756 -117.102,64.412 -118.035,66.617ZM-173.537,16.592C-173.537,18.117 -174.387,19.094 -176.082,19.518L-179.393,20.028C-180.582,20.622 -182.321,22.956 -184.612,27.028C-184.868,25.757 -185.249,23.975 -185.758,21.682C-186.522,21.768 -187.793,22.446 -189.576,23.719C-190.34,24.313 -191.572,25.203 -193.269,26.391C-192.757,23.336 -191.062,20.243 -188.175,17.098C-185.12,13.621 -182.15,11.881 -179.265,11.881C-175.447,11.881 -173.537,13.453 -173.537,16.592ZM-151.387,28.301C-151.387,29.744 -152.172,30.955 -153.742,31.93C-155.312,32.907 -156.861,33.395 -158.388,33.395C-160.425,33.395 -162.251,32.249 -163.861,29.957C-165.816,27.156 -167.808,25.332 -169.845,24.48C-169.421,24.058 -168.911,23.845 -168.316,23.845C-167.552,23.845 -166.261,24.439 -164.435,25.626C-162.611,26.815 -161.445,27.409 -160.933,27.409C-160.509,27.409 -159.81,26.815 -158.833,25.626C-157.858,24.438 -156.776,23.845 -155.587,23.845C-152.787,23.846 -151.387,25.332 -151.387,28.301Z" style="fill:rgb(13,15,15);fill-rule:nonzero;"/>
        </g>
    </g>
</svg>
