<?xml version="1.0" encoding="UTF-8" standalone="no"?>
<!DOCTYPE svg PUBLIC "-//W3C//DTD SVG 1.1//EN" "http://www.w3.org/Graphics/SVG/1.1/DTD/svg11.dtd">
<svg width="100%" height="100%" viewBox="0 0 101 100" version="1.1" xmlns="http://www.w3.org/2000/svg" xmlns:xlink="http://www.w3.org/1999/xlink" xml:space="preserve" xmlns:serif="http://www.serif.com/" style="fill-rule:evenodd;clip-rule:evenodd;stroke-linejoin:round;stroke-miterlimit:2;">
    <g transform="matrix(1,0,0,1,-945,-210.002)">
        <g transform="matrix(1,0,0,1,945,210.002)">
            <circle cx="50.001" cy="50" r="50" style="fill:rgb(201,196,190);"/>
            <g>
                <path d="M37.843,89.157L40.198,85.077L50.001,98.881L59.803,85.077L62.158,89.157L66.496,89.208L75.001,93.303L75.708,83.891L77.833,80.105L75.479,76.027L92.334,74.439L85.279,59.05L89.99,59.05L92.203,55.318L100,50L92.203,44.681L89.99,40.95L85.279,40.95L92.333,25.559L75.479,23.973L77.833,19.893L75.707,16.111L75,6.699L66.496,10.792L62.158,10.843L59.803,14.922L50,1.118L40.198,14.922L37.843,10.843L33.505,10.792L25,6.699L24.293,16.111L22.168,19.893L24.523,23.973L7.667,25.56L14.722,40.95L10.011,40.95L7.798,44.682L0,50L7.797,55.318L10.011,59.05L14.722,59.05L7.668,74.441L24.523,76.027L22.168,80.105L24.293,83.889L25.001,93.303L33.505,89.209L37.843,89.157Z" style="fill:rgb(13,15,15);fill-rule:nonzero;"/>
                <path d="M34.895,80.211L50,55.875L65.105,80.211L65.105,84.259L68.609,86.282L72.116,84.258L72.116,80.212L68.609,78.188L55.088,52.938L83.717,52.023L87.223,54.048L90.727,52.025L90.727,47.976L87.223,45.953L83.717,47.976L55.088,47.063L68.611,21.813L72.117,19.789L72.117,15.743L68.611,13.719L65.107,15.742L65.105,19.789L50.001,44.125L34.896,19.789L34.895,15.741L31.392,13.718L27.885,15.743L27.885,19.789L31.391,21.813L44.913,47.063L16.285,47.976L12.778,45.953L9.275,47.975L9.275,52.023L12.778,54.047L16.285,52.023L44.913,52.938L31.39,78.188L27.885,80.211L27.884,84.258L31.39,86.281L34.895,84.258L34.895,80.211Z" style="fill:white;fill-rule:nonzero;"/>
            </g>
            <path d="M57.051,22.393L50.001,34.681L42.951,22.393L50.001,10.104L57.051,22.393Z" style="fill:white;fill-rule:nonzero;"/>
            <path d="M29.617,30.09L36.734,42.34L22.567,42.301L15.45,30.052L29.617,30.09Z" style="fill:white;fill-rule:nonzero;"/>
            <path d="M22.566,57.697L36.733,57.659L29.616,69.908L15.449,69.947L22.566,57.697Z" style="fill:white;fill-rule:nonzero;"/>
            <path d="M42.949,77.607L50,65.318L57.05,77.607L50,89.896L42.949,77.607Z" style="fill:white;fill-rule:nonzero;"/>
            <path d="M70.384,69.91L63.268,57.66L77.434,57.699L84.551,69.947L70.384,69.91Z" style="fill:white;fill-rule:nonzero;"/>
            <path d="M77.436,42.303L63.268,42.341L70.385,30.092L84.551,30.053L77.436,42.303Z" style="fill:white;fill-rule:nonzero;"/>
        </g>
    </g>
</svg>
