<?xml version="1.0" encoding="UTF-8" standalone="no"?>
<!DOCTYPE svg PUBLIC "-//W3C//DTD SVG 1.1//EN" "http://www.w3.org/Graphics/SVG/1.1/DTD/svg11.dtd">
<svg width="100%" height="100%" viewBox="0 0 100 100" version="1.1" xmlns="http://www.w3.org/2000/svg" xmlns:xlink="http://www.w3.org/1999/xlink" xml:space="preserve" xmlns:serif="http://www.serif.com/" style="fill-rule:evenodd;clip-rule:evenodd;stroke-linejoin:round;stroke-miterlimit:2;">
    <g transform="matrix(1,0,0,1,0,-315.003)">
        <g transform="matrix(1,0,0,1,945,210.002)">
            <path d="M-859.651,119.637C-850.599,128.688 -845,141.188 -845,154.997C-845,182.613 -867.387,205 -895.001,205C-908.807,205 -921.306,199.404 -930.355,190.354" style="fill:rgb(193,215,233);fill-rule:nonzero;"/>
            <path d="M-930.354,190.354C-939.403,181.307 -945,168.805 -945,154.998C-945,127.385 -922.614,105.001 -895.001,105.001C-881.197,105.001 -868.699,110.595 -859.651,119.638" style="fill:rgb(248,246,216);fill-rule:nonzero;"/>
        </g>
        <g transform="matrix(1,0,0,1,945,210.002)">
            <path d="M-868.278,188.675C-870.971,191.414 -874.285,192.784 -878.224,192.784C-882.647,192.784 -886.154,191.269 -888.749,188.243C-891.201,185.359 -892.425,181.685 -892.425,177.215C-892.425,172.411 -890.335,166.934 -886.154,160.781C-882.744,155.734 -878.731,151.314 -874.117,147.517C-874.789,150.593 -875.126,152.779 -875.126,154.078C-875.126,157.058 -874.191,159.964 -872.314,162.799C-870.009,166.164 -868.254,168.663 -867.053,170.295C-865.179,173.13 -864.24,175.895 -864.24,178.584C-864.241,182.574 -865.588,185.938 -868.278,188.675ZM-868.349,173.287C-869.071,171.678 -869.912,170.607 -870.873,170.079C-870.728,170.367 -870.657,170.777 -870.657,171.305C-870.657,172.315 -870.944,173.758 -871.521,175.629L-872.459,178.514C-872.459,180.194 -871.619,181.036 -869.935,181.036C-868.159,181.036 -867.268,179.859 -867.268,177.504C-867.269,176.303 -867.629,174.896 -868.349,173.287Z" style="fill:rgb(13,15,15);fill-rule:nonzero;"/>
        </g>
        <g transform="matrix(1,0,0,1,945,210.002)">
            <path d="M-890.333,143.264C-892.769,141 -894.387,139.772 -895.181,139.582C-895.758,139.443 -896.316,139.779 -896.853,140.587C-897.39,141.395 -898.145,141.682 -899.121,141.445C-899.518,141.351 -900.296,141.011 -901.454,140.429C-902.392,141.314 -902.895,141.9 -902.965,142.187C-903.06,142.584 -902.876,143.125 -902.415,143.808C-901.955,144.493 -901.521,144.88 -901.114,144.978C-900.857,145.041 -900.492,145.07 -900.024,145.068C-899.556,145.066 -899.247,145.083 -899.098,145.119C-898.654,145.223 -898.629,146.09 -899.019,147.716C-899.389,149.268 -900.321,151.569 -901.813,154.608C-901.871,150.7 -902.422,148.62 -903.468,148.37C-903.613,148.335 -903.937,148.373 -904.44,148.481C-904.945,148.587 -905.304,148.619 -905.52,148.567C-906.568,148.315 -907.278,147.133 -907.651,145.02C-909.373,144.875 -910.408,145.526 -910.754,146.969C-910.927,147.694 -910.73,148.352 -910.165,148.944C-909.601,149.538 -909.341,149.924 -909.382,150.104C-909.614,151.082 -911.403,152.237 -914.737,153.578C-916.514,154.299 -917.744,154.806 -918.425,155.1C-917.766,154.573 -917.056,153.843 -916.299,152.917C-915.437,151.861 -914.927,151.012 -914.771,150.359C-914.685,150 -914.979,149.392 -915.654,148.544C-916.33,147.695 -916.58,146.911 -916.407,146.19C-916.261,145.576 -915.864,144.871 -915.214,144.069C-915.554,143.416 -916.048,143.009 -916.698,142.854C-918.142,142.508 -918.977,142.805 -919.202,143.746C-919.046,143.097 -919.163,143.584 -919.551,145.208C-919.801,146.408 -920.847,146.788 -922.689,146.349C-924.098,146.01 -926.385,145.12 -929.553,143.676C-925.571,143.636 -923.434,143.001 -923.141,141.773C-923.174,141.919 -923.144,141.466 -923.045,140.42C-922.922,139.267 -921.885,138.444 -919.937,137.956C-919.864,136.218 -920.53,135.181 -921.94,134.842C-922.156,134.79 -922.646,135.074 -923.403,135.695C-924.163,136.316 -924.796,136.566 -925.301,136.443C-926.168,136.238 -927.063,135.031 -927.985,132.824C-928.411,131.728 -929.072,130.101 -929.967,127.939C-929.24,128.57 -928.514,129.205 -927.786,129.835C-926.823,130.601 -926.016,131.06 -925.367,131.217C-924.861,131.337 -924.259,131.013 -923.559,130.244C-922.861,129.475 -922.113,129.186 -921.319,129.378C-921.208,129.403 -920.539,129.792 -919.307,130.547C-918.37,129.663 -917.841,128.97 -917.719,128.463C-917.617,128.028 -917.759,127.472 -918.15,126.785C-918.539,126.1 -918.952,125.707 -919.385,125.6C-919.566,125.557 -919.857,125.543 -920.262,125.563C-920.668,125.581 -920.961,125.567 -921.141,125.524C-921.791,125.369 -921.922,124.479 -921.533,122.852C-921.431,122.418 -920.422,120.044 -918.511,115.729C-918.677,116.26 -918.684,117.33 -918.532,118.932C-918.351,120.885 -917.845,121.958 -917.014,122.16C-916.87,122.194 -916.555,122.155 -916.069,122.041C-915.584,121.929 -915.216,121.901 -914.964,121.963C-914.134,122.161 -913.56,122.796 -913.242,123.864L-912.779,125.52C-912.022,125.702 -911.324,125.583 -910.69,125.162C-910.054,124.742 -909.644,124.151 -909.463,123.393C-909.274,122.598 -909.463,121.914 -910.031,121.337C-910.601,120.762 -910.86,120.366 -910.806,120.149C-910.625,119.391 -909.126,118.395 -906.311,117.16C-904.051,116.175 -902.602,115.623 -901.962,115.509C-904.016,117.234 -905.161,118.579 -905.393,119.556C-905.514,120.062 -905.338,120.679 -904.862,121.404C-904.267,122.271 -903.95,122.863 -903.912,123.175C-903.75,124.095 -904.058,125.222 -904.836,126.564C-904.025,127.484 -903.367,128.003 -902.859,128.126C-901.815,128.376 -901.16,127.959 -900.901,126.876C-900.874,126.768 -900.838,126.414 -900.789,125.814C-900.743,125.214 -900.691,124.883 -900.638,124.818C-900.371,124.347 -899.318,124.332 -897.476,124.773C-896.32,125.05 -893.997,125.949 -890.504,127.472C-891.35,127.498 -892.62,127.537 -894.313,127.592C-895.862,127.679 -896.701,127.994 -896.832,128.535C-896.891,128.789 -896.906,129.243 -896.872,129.899C-896.838,130.555 -896.856,131.032 -896.925,131.319C-897.045,131.826 -897.483,132.215 -898.236,132.495L-900.392,133.354C-900.146,134.251 -899.972,134.792 -899.861,134.969C-899.602,135.489 -899.168,135.823 -898.554,135.971C-898.12,136.075 -897.632,135.79 -897.089,135.117C-896.547,134.445 -895.877,134.205 -895.083,134.394C-894.108,134.626 -893.222,135.792 -892.425,137.894C-891.984,139.068 -891.286,140.859 -890.333,143.264ZM-901.608,137.243C-901.056,134.931 -901.425,132.722 -902.716,130.62C-904.008,128.516 -905.81,127.187 -908.12,126.634C-910.469,126.072 -912.693,126.428 -914.791,127.703C-916.889,128.974 -918.239,130.781 -918.836,133.12C-919.426,135.423 -919.046,137.625 -917.695,139.723C-916.345,141.823 -914.515,143.149 -912.202,143.702C-909.747,144.289 -907.504,143.977 -905.477,142.761C-903.452,141.547 -902.162,139.706 -901.608,137.243ZM-902.422,137.049C-902.949,139.252 -904.125,140.901 -905.952,141.988C-907.778,143.078 -909.795,143.361 -911.996,142.834C-914.127,142.324 -915.773,141.146 -916.936,139.303C-918.099,137.46 -918.425,135.475 -917.915,133.341C-917.412,131.246 -916.217,129.633 -914.323,128.5C-912.427,127.371 -910.434,127.055 -908.34,127.557C-906.246,128.057 -904.612,129.25 -903.441,131.134C-902.27,133.02 -901.929,134.988 -902.422,137.049Z" style="fill:rgb(13,15,15);fill-rule:nonzero;"/>
        </g>
    </g>
</svg>
