<?xml version="1.0" encoding="UTF-8" standalone="no"?>
<!DOCTYPE svg PUBLIC "-//W3C//DTD SVG 1.1//EN" "http://www.w3.org/Graphics/SVG/1.1/DTD/svg11.dtd">
<svg width="100%" height="100%" viewBox="0 0 100 100" version="1.1" xmlns="http://www.w3.org/2000/svg" xmlns:xlink="http://www.w3.org/1999/xlink" xml:space="preserve" xmlns:serif="http://www.serif.com/" style="fill-rule:evenodd;clip-rule:evenodd;stroke-linejoin:round;stroke-miterlimit:2;">
    <g transform="matrix(1,0,0,1,-420,-210.002)">
        <g transform="matrix(1,0,0,1,945,210.002)">
            <circle cx="-475" cy="50" r="50" style="fill:rgb(248,246,216);"/>
        </g>
        <g transform="matrix(1,0,0,1,945,210.002)">
            <path d="M-427.309,57.064C-433.87,53.365 -438.077,51.513 -439.926,51.513C-441.27,51.513 -442.321,52.545 -443.08,54.605C-443.838,56.668 -445.35,57.695 -447.621,57.695C-448.547,57.695 -450.439,57.359 -453.299,56.687C-454.897,59.127 -455.697,60.683 -455.697,61.355C-455.697,62.281 -455.008,63.371 -453.633,64.636C-452.258,65.898 -451.098,66.527 -450.151,66.527C-449.549,66.527 -448.735,66.402 -447.702,66.148C-446.671,65.898 -445.981,65.771 -445.638,65.771C-444.605,65.771 -444.091,67.664 -444.091,71.449C-444.091,75.066 -444.931,80.617 -446.614,88.103C-448.802,79.523 -451.114,75.232 -453.552,75.232C-453.89,75.232 -454.583,75.484 -455.634,75.992C-456.687,76.494 -457.464,76.746 -457.968,76.746C-460.406,76.746 -462.593,74.519 -464.529,70.058C-468.398,70.648 -470.334,72.625 -470.334,75.992C-470.334,77.676 -469.557,79.019 -467.998,80.027C-466.445,81.035 -465.664,81.754 -465.664,82.172C-465.664,84.445 -468.988,87.936 -475.633,92.645C-479.164,95.168 -481.606,96.934 -482.949,97.942C-481.775,96.43 -480.597,94.455 -479.416,92.014C-478.072,89.239 -477.398,87.094 -477.398,85.578C-477.398,84.738 -478.365,83.558 -480.3,82.045C-482.236,80.533 -483.2,78.934 -483.2,77.252C-483.2,75.824 -482.698,74.059 -481.688,71.953C-482.782,70.691 -484.083,70.058 -485.598,70.058C-488.963,70.058 -490.643,71.154 -490.643,73.338C-490.643,71.824 -490.643,72.959 -490.643,76.744C-490.561,79.52 -492.663,80.908 -496.954,80.908C-500.233,80.908 -505.745,80.149 -513.481,78.637C-504.733,76.449 -500.36,73.926 -500.36,71.067C-500.36,71.403 -500.528,70.395 -500.864,68.039C-501.202,65.435 -499.35,63.078 -495.313,60.976C-496.071,57.109 -498.086,55.17 -501.37,55.17C-501.874,55.17 -502.802,56.054 -504.145,57.817C-505.491,59.588 -506.752,60.469 -507.928,60.469C-509.948,60.469 -512.557,58.283 -515.75,53.906C-517.266,51.722 -519.58,48.482 -522.691,44.191C-520.757,45.203 -518.822,46.211 -516.886,47.222C-514.363,48.398 -512.345,48.988 -510.829,48.988C-509.651,48.988 -508.495,47.957 -507.36,45.896C-506.225,43.835 -504.731,42.804 -502.881,42.804C-502.627,42.804 -500.945,43.308 -497.834,44.32C-496.238,41.881 -495.436,40.072 -495.436,38.894C-495.436,37.884 -496.047,36.728 -497.266,35.423C-498.487,34.12 -499.6,33.468 -500.61,33.468C-501.032,33.468 -501.682,33.593 -502.567,33.847C-503.448,34.099 -504.1,34.226 -504.52,34.226C-506.036,34.226 -506.793,32.333 -506.793,28.548C-506.793,27.538 -505.824,21.778 -503.889,11.263C-503.975,12.523 -503.428,14.88 -502.25,18.327C-500.82,22.534 -499.139,24.636 -497.201,24.636C-496.867,24.636 -496.193,24.384 -495.183,23.878C-494.175,23.374 -493.376,23.124 -492.787,23.124C-490.853,23.124 -489.256,24.218 -487.992,26.401L-486.099,29.807C-484.333,29.807 -482.861,29.178 -481.685,27.916C-480.507,26.654 -479.917,25.139 -479.917,23.373C-479.917,21.523 -480.694,20.113 -482.251,19.146C-483.81,18.179 -484.587,17.443 -484.587,16.939C-484.587,15.171 -481.81,12.187 -476.259,7.981C-471.802,4.618 -468.9,2.641 -467.552,2.051C-471.169,6.93 -472.978,10.502 -472.978,12.775C-472.978,13.953 -472.265,15.216 -470.833,16.56C-469.067,18.158 -468.058,19.294 -467.806,19.966C-466.966,21.904 -467.05,24.552 -468.058,27.915C-465.787,29.515 -464.064,30.311 -462.884,30.311C-460.448,30.311 -459.226,29.047 -459.226,26.526C-459.226,26.274 -459.331,25.475 -459.54,24.13C-459.753,22.786 -459.813,22.028 -459.731,21.859C-459.395,20.681 -457.081,20.091 -452.792,20.091C-450.101,20.091 -444.509,20.849 -436.011,22.364C-437.863,22.868 -440.638,23.624 -444.337,24.634C-447.702,25.644 -449.386,26.779 -449.386,28.04C-449.386,28.63 -449.177,29.638 -448.755,31.067C-448.335,32.499 -448.122,33.547 -448.122,34.223C-448.122,35.399 -448.88,36.493 -450.393,37.5L-454.684,40.531C-453.674,42.383 -453.002,43.476 -452.664,43.81C-451.824,44.818 -450.689,45.324 -449.258,45.324C-448.248,45.324 -447.324,44.441 -446.483,42.676C-445.643,40.908 -444.295,40.026 -442.446,40.026C-440.176,40.026 -437.608,42.13 -434.749,46.337C-433.156,48.697 -430.674,52.27 -427.309,57.064ZM-455.316,49.748C-455.316,44.367 -457.295,39.697 -461.248,35.742C-465.201,31.789 -469.869,29.812 -475.252,29.812C-480.721,29.812 -485.432,31.769 -489.383,35.681C-493.336,39.591 -495.356,44.281 -495.438,49.747C-495.524,55.13 -493.526,59.777 -489.446,63.685C-485.366,67.597 -480.635,69.554 -475.253,69.554C-469.534,69.554 -464.761,67.681 -460.935,63.939C-457.105,60.199 -455.234,55.469 -455.316,49.748ZM-457.209,49.748C-457.209,54.879 -458.934,59.129 -462.383,62.488C-465.834,65.855 -470.123,67.537 -475.252,67.537C-480.215,67.537 -484.463,65.814 -487.994,62.363C-491.525,58.918 -493.293,54.711 -493.293,49.748C-493.293,44.871 -491.508,40.684 -487.934,37.195C-484.356,33.705 -480.131,31.957 -475.252,31.957C-470.375,31.957 -466.148,33.723 -462.572,37.258C-458.998,40.791 -457.209,44.953 -457.209,49.748Z" style="fill:rgb(13,15,15);fill-rule:nonzero;"/>
        </g>
    </g>
</svg>
