<?xml version="1.0" encoding="UTF-8" standalone="no"?>
<!DOCTYPE svg PUBLIC "-//W3C//DTD SVG 1.1//EN" "http://www.w3.org/Graphics/SVG/1.1/DTD/svg11.dtd">
<svg width="100%" height="100%" viewBox="0 0 100 100" version="1.1" xmlns="http://www.w3.org/2000/svg" xmlns:xlink="http://www.w3.org/1999/xlink" xml:space="preserve" xmlns:serif="http://www.serif.com/" style="fill-rule:evenodd;clip-rule:evenodd;stroke-linejoin:round;stroke-miterlimit:2;">
    <g transform="matrix(1,0,0,1,-105,-315.003)">
        <g transform="matrix(1,0,0,1,945,210.002)">
            <path d="M-754.651,119.637C-745.599,128.688 -740,141.188 -740,154.997C-740,182.613 -762.386,205 -790.001,205C-803.807,205 -816.306,199.404 -825.355,190.354" style="fill:rgb(186,177,171);fill-rule:nonzero;"/>
            <path d="M-825.354,190.354C-834.403,181.307 -840,168.805 -840,154.998C-840,127.385 -817.614,105.001 -790.001,105.001C-776.197,105.001 -763.699,110.595 -754.651,119.638" style="fill:rgb(248,246,216);fill-rule:nonzero;"/>
        </g>
        <g transform="matrix(1,0,0,1,945,210.002)">
            <path d="M-750.38,170.99C-750.38,173.691 -751.362,175.534 -753.327,176.515C-753.901,176.802 -755.701,177.193 -758.731,177.681C-760.694,178.011 -761.677,178.767 -761.677,179.952L-761.677,184.925C-761.677,185.134 -761.614,185.767 -761.492,186.83L-761.307,188.796C-761.307,189.409 -761.451,190.413 -761.738,191.804C-762.515,191.967 -763.416,192.152 -764.439,192.359C-764.767,191.129 -764.93,190.29 -764.93,189.839C-764.93,189.636 -764.88,189.327 -764.777,188.918C-764.675,188.511 -764.623,188.202 -764.623,187.996C-764.623,187.712 -764.876,186.913 -765.385,185.602L-766.338,185.602C-766.464,185.807 -766.505,186.074 -766.465,186.399C-766.301,187.096 -766.24,187.688 -766.279,188.18C-766.976,188.671 -767.936,189.326 -769.164,190.145C-769.453,190.063 -769.553,190.022 -769.472,190.022L-769.472,185.663C-769.553,185.46 -769.757,185.378 -770.086,185.417L-770.823,185.417L-771.56,191.188C-772.133,191.229 -772.828,191.229 -773.646,191.188C-773.933,189.837 -774.445,187.834 -775.181,185.171L-775.674,185.171C-776.124,186.604 -776.369,187.382 -776.411,187.505C-776.411,187.668 -776.359,187.984 -776.256,188.456C-776.154,188.928 -776.103,189.243 -776.103,189.407C-776.103,189.529 -776.145,189.837 -776.228,190.328L-776.412,191.803C-776.495,191.882 -776.595,191.923 -776.718,191.923C-777.946,191.923 -778.766,191.616 -779.173,191.004C-779.585,190.389 -779.749,189.529 -779.666,188.424L-779.173,181.059C-779.173,180.936 -779.134,180.772 -779.052,180.567C-778.97,180.364 -778.929,180.219 -778.929,180.139C-778.929,179.811 -779.277,179.155 -779.972,178.171C-780.095,178.131 -780.729,177.986 -781.876,177.74C-782.571,177.578 -783.942,177.291 -785.988,176.883C-788.813,176.352 -790.226,174.08 -790.226,170.069C-790.226,164.091 -787.769,159.12 -782.859,155.149C-782.655,156.255 -782.305,157.727 -781.814,159.569C-781.446,159.653 -780.647,159.838 -779.42,160.123C-779.173,160.204 -777.926,160.655 -775.675,161.474C-776.82,160.779 -778.315,159.656 -780.155,158.099C-780.852,157.281 -781.201,155.909 -781.201,153.986C-781.201,153.534 -780.423,153.004 -778.866,152.386C-777.475,151.814 -776.432,151.49 -775.735,151.407C-773.526,151.121 -771.827,150.976 -770.639,150.976C-765.524,150.976 -761.389,152.287 -758.238,154.908C-759.26,156.096 -761.021,157.361 -763.517,158.714C-762.535,158.755 -761.102,158.367 -759.219,157.546C-757.337,156.731 -756.539,156.318 -756.825,156.318C-756.498,156.318 -755.842,156.974 -754.86,158.283C-754.126,159.265 -753.531,160.146 -753.08,160.923C-751.77,163.256 -750.89,165.776 -750.439,168.475C-750.439,169.417 -750.419,170.092 -750.378,170.5L-750.38,170.99ZM-773.896,172.098C-773.896,170.337 -774.663,168.669 -776.197,167.092C-777.733,165.516 -779.383,164.729 -781.141,164.729C-782.696,164.729 -784.066,165.389 -785.254,166.707C-786.441,168.026 -787.034,169.489 -787.034,171.097C-787.034,172.497 -786.359,173.406 -785.008,173.816C-784.148,174.064 -782.942,174.208 -781.387,174.25L-778.01,174.25C-775.267,174.285 -773.896,173.568 -773.896,172.098ZM-767.203,179.71L-767.203,177.809C-767.489,177.276 -767.776,176.721 -768.061,176.149C-768.307,175.332 -768.758,174.186 -769.412,172.71L-770.088,179.894C-770.088,180.47 -770.21,180.755 -770.457,180.755C-770.62,180.755 -770.744,180.715 -770.825,180.632C-771.112,176.294 -771.254,174.41 -771.254,174.986L-771.254,172.838C-771.337,172.712 -771.439,172.65 -771.562,172.65C-772.953,174.087 -773.648,176.398 -773.648,179.588C-773.648,181.349 -773.485,182.433 -773.158,182.845C-772.829,182.763 -772.463,182.619 -772.052,182.414C-771.889,182.331 -771.419,182.291 -770.641,182.291C-769.866,182.291 -768.921,182.536 -767.818,183.026C-767.407,183.023 -767.203,181.921 -767.203,179.71ZM-753.327,171.154C-753.327,169.508 -753.941,168.035 -755.169,166.736C-756.397,165.439 -757.809,164.791 -759.403,164.791C-761.123,164.791 -762.731,165.578 -764.224,167.152C-765.719,168.728 -766.466,170.376 -766.466,172.097C-766.466,173.529 -765.769,174.244 -764.378,174.244L-757.319,174.244C-754.657,174.204 -753.327,173.176 -753.327,171.154Z" style="fill:rgb(13,15,15);fill-rule:nonzero;"/>
        </g>
        <g transform="matrix(1,0,0,1,945,210.002)">
            <path d="M-785.333,143.264C-787.769,141 -789.387,139.772 -790.181,139.582C-790.758,139.443 -791.316,139.779 -791.853,140.587C-792.39,141.395 -793.145,141.682 -794.121,141.445C-794.518,141.351 -795.296,141.013 -796.454,140.429C-797.392,141.314 -797.895,141.9 -797.965,142.187C-798.06,142.584 -797.876,143.125 -797.415,143.81C-796.955,144.493 -796.521,144.88 -796.114,144.978C-795.857,145.041 -795.492,145.07 -795.024,145.068C-794.556,145.068 -794.247,145.083 -794.098,145.119C-793.654,145.224 -793.629,146.09 -794.019,147.716C-794.389,149.268 -795.321,151.569 -796.813,154.608C-796.871,150.7 -797.422,148.62 -798.468,148.37C-798.613,148.335 -798.937,148.373 -799.44,148.481C-799.945,148.587 -800.304,148.619 -800.52,148.567C-801.568,148.317 -802.278,147.133 -802.651,145.02C-804.373,144.875 -805.408,145.526 -805.754,146.969C-805.927,147.694 -805.73,148.352 -805.165,148.944C-804.601,149.538 -804.341,149.925 -804.382,150.104C-804.614,151.082 -806.403,152.237 -809.737,153.578C-811.514,154.301 -812.744,154.807 -813.425,155.102C-812.766,154.573 -812.056,153.844 -811.299,152.917C-810.437,151.863 -809.927,151.012 -809.771,150.359C-809.685,150.002 -809.979,149.394 -810.654,148.546C-811.33,147.695 -811.58,146.912 -811.407,146.192C-811.261,145.576 -810.864,144.871 -810.214,144.069C-810.554,143.416 -811.048,143.01 -811.698,142.856C-813.142,142.508 -813.977,142.805 -814.202,143.746C-814.046,143.097 -814.163,143.584 -814.551,145.21C-814.801,146.408 -815.847,146.788 -817.689,146.349C-819.098,146.013 -821.385,145.121 -824.553,143.677C-820.571,143.636 -818.434,143.002 -818.141,141.773C-818.174,141.919 -818.144,141.466 -818.045,140.42C-817.922,139.269 -816.885,138.444 -814.937,137.956C-814.864,136.22 -815.53,135.181 -816.94,134.845C-817.156,134.79 -817.646,135.074 -818.403,135.695C-819.163,136.316 -819.796,136.566 -820.301,136.445C-821.168,136.238 -822.063,135.031 -822.985,132.824C-823.411,131.728 -824.072,130.101 -824.967,127.939C-824.24,128.57 -823.514,129.205 -822.786,129.835C-821.823,130.601 -821.016,131.06 -820.367,131.217C-819.861,131.337 -819.259,131.015 -818.559,130.244C-817.861,129.477 -817.113,129.188 -816.319,129.378C-816.208,129.403 -815.539,129.792 -814.307,130.547C-813.37,129.665 -812.841,128.97 -812.719,128.463C-812.617,128.031 -812.759,127.472 -813.15,126.785C-813.539,126.1 -813.952,125.707 -814.385,125.6C-814.566,125.557 -814.857,125.543 -815.262,125.563C-815.668,125.581 -815.961,125.569 -816.141,125.524C-816.791,125.369 -816.922,124.479 -816.533,122.854C-816.431,122.418 -815.422,120.045 -813.511,115.729C-813.677,116.26 -813.684,117.33 -813.532,118.934C-813.351,120.887 -812.845,121.958 -812.014,122.16C-811.87,122.194 -811.555,122.155 -811.069,122.041C-810.584,121.929 -810.216,121.901 -809.964,121.963C-809.134,122.163 -808.56,122.796 -808.242,123.864L-807.779,125.52C-807.022,125.702 -806.324,125.583 -805.69,125.163C-805.054,124.742 -804.644,124.151 -804.463,123.393C-804.274,122.6 -804.463,121.914 -805.031,121.337C-805.601,120.762 -805.86,120.366 -805.806,120.149C-805.625,119.391 -804.126,118.395 -801.311,117.162C-799.051,116.175 -797.602,115.623 -796.962,115.509C-799.016,117.234 -800.161,118.579 -800.393,119.556C-800.514,120.062 -800.338,120.679 -799.862,121.404C-799.267,122.271 -798.95,122.863 -798.912,123.175C-798.75,124.095 -799.058,125.224 -799.836,126.564C-799.025,127.484 -798.367,128.003 -797.859,128.126C-796.815,128.376 -796.16,127.959 -795.901,126.876C-795.874,126.768 -795.838,126.414 -795.789,125.816C-795.743,125.214 -795.691,124.883 -795.638,124.818C-795.371,124.347 -794.318,124.334 -792.476,124.773C-791.32,125.05 -788.997,125.949 -785.504,127.472C-786.35,127.498 -787.62,127.537 -789.313,127.592C-790.862,127.679 -791.701,127.995 -791.832,128.537C-791.891,128.789 -791.906,129.244 -791.872,129.901C-791.838,130.557 -791.856,131.032 -791.925,131.319C-792.045,131.826 -792.483,132.215 -793.236,132.495L-795.392,133.354C-795.146,134.253 -794.972,134.792 -794.861,134.969C-794.602,135.49 -794.168,135.824 -793.554,135.971C-793.12,136.075 -792.632,135.79 -792.089,135.117C-791.547,134.445 -790.877,134.206 -790.083,134.394C-789.108,134.627 -788.222,135.793 -787.425,137.894C-786.984,139.07 -786.286,140.859 -785.333,143.264ZM-796.608,137.244C-796.056,134.933 -796.425,132.723 -797.716,130.62C-799.008,128.516 -800.81,127.187 -803.12,126.637C-805.469,126.073 -807.693,126.428 -809.791,127.703C-811.889,128.974 -813.239,130.781 -813.836,133.12C-814.426,135.423 -814.046,137.625 -812.695,139.724C-811.345,141.82 -809.515,143.148 -807.202,143.701C-804.747,144.287 -802.504,143.974 -800.477,142.762C-798.452,141.547 -797.162,139.706 -796.608,137.244ZM-797.422,137.049C-797.949,139.252 -799.125,140.901 -800.952,141.988C-802.778,143.08 -804.795,143.361 -806.996,142.834C-809.127,142.324 -810.773,141.146 -811.936,139.303C-813.099,137.46 -813.425,135.475 -812.915,133.341C-812.412,131.246 -811.217,129.633 -809.323,128.5C-807.427,127.371 -805.434,127.057 -803.34,127.557C-801.246,128.057 -799.612,129.25 -798.441,131.134C-797.27,133.02 -796.929,134.988 -797.422,137.049Z" style="fill:rgb(13,15,15);fill-rule:nonzero;"/>
        </g>
    </g>
</svg>
